<svg xmlns="http://www.w3.org/2000/svg" xmlns:xlink="http://www.w3.org/1999/xlink" xmlns:lucid="lucid" width="1939.14" height="800.82"><g transform="translate(0 0)" lucid:page-tab-id="0_0"><path d="M45.76 45.76H231.1v72.7H45.75zM231.1 45.76h185.33v72.7H231.1zM416.43 45.76h185.33v72.7H416.43z" fill="#fff"/><path d="M601.76 45.76H787.1v72.7H601.75zM787.1 45.76h185.33v72.7H787.1z" fill="#fff"/><path d="M972.43 45.76h185.33v72.7H972.43z" fill="#fff"/><path d="M1157.76 45.76h185.33v72.7h-185.34zM1343.1 45.76h185.33v72.7H1343.1zM1528.43 45.76h185.33v72.7h-185.33z" fill="#fff"/><path d="M1713.76 45.76h185.33v72.7h-185.34zM45.76 118.46H231.1v72.7H45.75zM231.1 118.46h185.33v72.7H231.1zM416.43 118.46h185.33v72.7H416.43z" fill="#fff"/><path d="M601.76 118.46H787.1v72.7H601.75zM787.1 118.46h185.33v72.7H787.1z" fill="#fff"/><path d="M972.43 118.46h185.33v72.7H972.43z" fill="#fff"/><path d="M1157.76 118.46h185.33v72.7h-185.34zM1343.1 118.46h185.33v72.7H1343.1zM1528.43 118.46h185.33v72.7h-185.33z" fill="#fff"/><path d="M1713.76 118.46h185.33v72.7h-185.34zM45.76 191.16H231.1v72.7H45.75zM231.1 191.16h185.33v72.7H231.1zM416.43 191.16h185.33v72.7H416.43z" fill="#fff"/><path d="M601.76 191.16H787.1v72.7H601.75zM787.1 191.16h185.33v72.7H787.1z" fill="#fff"/><path d="M972.43 191.16h185.33v72.7H972.43z" fill="#fff"/><path d="M1157.76 191.16h185.33v72.7h-185.34zM1343.1 191.16h185.33v72.7H1343.1zM1528.43 191.16h185.33v72.7h-185.33z" fill="#fff"/><path d="M1713.76 191.16h185.33v72.7h-185.34zM45.76 263.86H231.1v72.7H45.75zM231.1 263.86h185.33v72.7H231.1zM416.43 263.86h185.33v72.7H416.43z" fill="#fff"/><path d="M601.76 263.86H787.1v72.7H601.75zM787.1 263.86h185.33v72.7H787.1z" fill="#fff"/><path d="M972.43 263.86h185.33v72.7H972.43z" fill="#fff"/><path d="M1157.76 263.86h185.33v72.7h-185.34zM1343.1 263.86h185.33v72.7H1343.1zM1528.43 263.86h185.33v72.7h-185.33z" fill="#fff"/><path d="M1713.76 263.86h185.33v72.7h-185.34zM45.76 336.56H231.1v72.7H45.75zM231.1 336.56h185.33v72.7H231.1zM416.43 336.56h185.33v72.7H416.43z" fill="#fff"/><path d="M601.76 336.56H787.1v72.7H601.75zM787.1 336.56h185.33v72.7H787.1z" fill="#fff"/><path d="M972.43 336.56h185.33v72.7H972.43z" fill="#fff"/><path d="M1157.76 336.56h185.33v72.7h-185.34zM1343.1 336.56h185.33v72.7H1343.1zM1528.43 336.56h185.33v72.7h-185.33z" fill="#fff"/><path d="M1713.76 336.56h185.33v72.7h-185.34zM45.76 409.26H231.1v72.7H45.75zM231.1 409.26h185.33v72.7H231.1zM416.43 409.26h185.33v72.7H416.43z" fill="#fff"/><path d="M601.76 409.26H787.1v72.7H601.75zM787.1 409.26h185.33v72.7H787.1z" fill="#fff"/><path d="M972.43 409.26h185.33v72.7H972.43z" fill="#fff"/><path d="M1157.76 409.26h185.33v72.7h-185.34zM1343.1 409.26h185.33v72.7H1343.1zM1528.43 409.26h185.33v72.7h-185.33z" fill="#fff"/><path d="M1713.76 409.26h185.33v72.7h-185.34zM45.76 481.96H231.1v72.7H45.75zM231.1 481.96h185.33v72.7H231.1zM416.43 481.96h185.33v72.7H416.43z" fill="#fff"/><path d="M601.76 481.96H787.1v72.7H601.75zM787.1 481.96h185.33v72.7H787.1z" fill="#fff"/><path d="M972.43 481.96h185.33v72.7H972.43z" fill="#fff"/><path d="M1157.76 481.96h185.33v72.7h-185.34zM1343.1 481.96h185.33v72.7H1343.1zM1528.43 481.96h185.33v72.7h-185.33z" fill="#fff"/><path d="M1713.76 481.96h185.33v72.7h-185.34zM45.76 554.66H231.1v72.7H45.75zM231.1 554.66h185.33v72.7H231.1zM416.43 554.66h185.33v72.7H416.43z" fill="#fff"/><path d="M601.76 554.66H787.1v72.7H601.75zM787.1 554.66h185.33v72.7H787.1z" fill="#fff"/><path d="M972.43 554.66h185.33v72.7H972.43z" fill="#fff"/><path d="M1157.76 554.66h185.33v72.7h-185.34zM1343.1 554.66h185.33v72.7H1343.1zM1528.43 554.66h185.33v72.7h-185.33z" fill="#fff"/><path d="M1713.76 554.66h185.33v72.7h-185.34zM45.76 627.36H231.1v72.7H45.75zM231.1 627.36h185.33v72.7H231.1zM416.43 627.36h185.33v72.7H416.43z" fill="#fff"/><path d="M601.76 627.36H787.1v72.7H601.75zM787.1 627.36h185.33v72.7H787.1z" fill="#fff"/><path d="M972.43 627.36h185.33v72.7H972.43z" fill="#fff"/><path d="M1157.76 627.36h185.33v72.7h-185.34zM1343.1 627.36h185.33v72.7H1343.1zM1528.43 627.36h185.33v72.7h-185.33z" fill="#fff"/><path d="M1713.76 627.36h185.33v72.7h-185.34zM45.76 700.06H231.1v72.7H45.75zM231.1 700.06h185.33v72.7H231.1zM416.43 700.06h185.33v72.7H416.43z" fill="#fff"/><path d="M601.76 700.06H787.1v72.7H601.75zM787.1 700.06h185.33v72.7H787.1z" fill="#fff"/><path d="M972.43 700.06h185.33v72.7H972.43z" fill="#fff"/><path d="M1157.76 700.06h185.33v72.7h-185.34zM1343.1 700.06h185.33v72.7H1343.1zM1528.43 700.06h185.33v72.7h-185.33z" fill="#fff"/><path d="M1713.76 700.06h185.33v72.7h-185.34z" fill="#fff"/><path d="M45.76 45.76v72.7M231.1 45.76v72.7M416.43 45.76v72.7M601.76 45.76v72.7M787.1 45.76v72.7M972.43 45.76v72.7M1157.76 45.76v72.7M1343.1 45.76v72.7M1528.43 45.76v72.7M1713.76 45.76v72.7M1899.1 45.76v72.7M45.76 118.46v72.7M231.1 118.46v72.7M416.43 118.46v72.7M601.76 118.46v72.7M787.1 118.46v72.7M972.43 118.46v72.7M1157.76 118.46v72.7M1343.1 118.46v72.7M1528.43 118.46v72.7M1713.76 118.46v72.7M1899.1 118.46v72.7M45.76 191.16v72.7M231.1 191.16v72.7M416.43 191.16v72.7M601.76 191.16v72.7M787.1 191.16v72.7M972.43 191.16v72.7M1157.76 191.16v72.7M1343.1 191.16v72.7M1528.43 191.16v72.7M1713.76 191.16v72.7M1899.1 191.16v72.7M45.76 263.86v72.7M231.1 263.86v72.7M416.43 263.86v72.7M601.76 263.86v72.7M787.1 263.86v72.7M972.43 263.86v72.7M1157.76 263.86v72.7M1343.1 263.86v72.7M1528.43 263.86v72.7M1713.76 263.86v72.7M1899.1 263.86v72.7M45.76 336.56v72.7M231.1 336.56v72.7M416.43 336.56v72.7M601.76 336.56v72.7M787.1 336.56v72.7M972.43 336.56v72.7M1157.76 336.56v72.7M1343.1 336.56v72.7M1528.43 336.56v72.7M1713.76 336.56v72.7M1899.1 336.56v72.7M45.76 409.26v72.7M231.1 409.26v72.7M416.43 409.26v72.7M601.76 409.26v72.7M787.1 409.26v72.7M972.43 409.26v72.7M1157.76 409.26v72.7M1343.1 409.26v72.7M1528.43 409.26v72.7M1713.76 409.26v72.7M1899.1 409.26v72.7M45.76 481.96v72.7M231.1 481.96v72.7M416.43 481.96v72.7M601.76 481.96v72.7M787.1 481.96v72.7M972.43 481.96v72.7M1157.76 481.96v72.7M1343.1 481.96v72.7M1528.43 481.96v72.7M1713.76 481.96v72.7M1899.1 481.96v72.7M45.76 554.66v72.7M231.1 554.66v72.7M416.43 554.66v72.7M601.76 554.66v72.7M787.1 554.66v72.7M972.43 554.66v72.7M1157.76 554.66v72.7M1343.1 554.66v72.7M1528.43 554.66v72.7M1713.76 554.66v72.7M1899.1 554.66v72.7M45.76 627.36v72.7M231.1 627.36v72.7M416.43 627.36v72.7M601.76 627.36v72.7M787.1 627.36v72.7M972.43 627.36v72.7M1157.76 627.36v72.7M1343.1 627.36v72.7M1528.43 627.36v72.7M1713.76 627.36v72.7M1899.1 627.36v72.7M45.76 700.06v72.7M231.1 700.06v72.7M416.43 700.06v72.7M601.76 700.06v72.7M787.1 700.06v72.7M972.43 700.06v72.7M1157.76 700.06v72.7M1343.1 700.06v72.7M1528.43 700.06v72.7M1713.76 700.06v72.7M1899.1 700.06v72.7M45.76 45.76H231.1M231.1 45.76h185.33M416.43 45.76h185.33M601.76 45.76H787.1M787.1 45.76h185.33M972.43 45.76h185.33M1157.76 45.76h185.33M1343.1 45.76h185.33M1528.43 45.76h185.33M1713.76 45.76h185.33M45.76 118.46H231.1M231.1 118.46h185.33M416.43 118.46h185.33M601.76 118.46H787.1M787.1 118.46h185.33M972.43 118.46h185.33M1157.76 118.46h185.33M1343.1 118.46h185.33M1528.43 118.46h185.33M1713.76 118.46h185.33M45.76 191.16H231.1M231.1 191.16h185.33M416.43 191.16h185.33M601.76 191.16H787.1M787.1 191.16h185.33M972.43 191.16h185.33M1157.76 191.16h185.33M1343.1 191.16h185.33M1528.43 191.16h185.33M1713.76 191.16h185.33M45.76 263.86H231.1M231.1 263.86h185.33M416.43 263.86h185.33M601.76 263.86H787.1M787.1 263.86h185.33M972.43 263.86h185.33M1157.76 263.86h185.33M1343.1 263.86h185.33M1528.43 263.86h185.33M1713.76 263.86h185.33M45.76 336.56H231.1M231.1 336.56h185.33M416.43 336.56h185.33M601.76 336.56H787.1M787.1 336.56h185.33M972.43 336.56h185.33M1157.76 336.56h185.33M1343.1 336.56h185.33M1528.43 336.56h185.33M1713.76 336.56h185.33M45.76 409.26H231.1M231.1 409.26h185.33M416.43 409.26h185.33M601.76 409.26H787.1M787.1 409.26h185.33M972.43 409.26h185.33M1157.76 409.26h185.33M1343.1 409.26h185.33M1528.43 409.26h185.33M1713.76 409.26h185.33M45.76 481.96H231.1M231.1 481.96h185.33M416.43 481.96h185.33M601.76 481.96H787.1M787.1 481.96h185.33M972.43 481.96h185.33M1157.76 481.96h185.33M1343.1 481.96h185.33M1528.43 481.96h185.33M1713.76 481.96h185.33M45.76 554.66H231.1M231.1 554.66h185.33M416.43 554.66h185.33M601.76 554.66H787.1M787.1 554.66h185.33M972.43 554.66h185.33M1157.76 554.66h185.33M1343.1 554.66h185.33M1528.43 554.66h185.33M1713.76 554.66h185.33M45.76 627.36H231.1M231.1 627.36h185.33M416.43 627.36h185.33M601.76 627.36H787.1M787.1 627.36h185.33M972.43 627.36h185.33M1157.76 627.36h185.33M1343.1 627.36h185.33M1528.43 627.36h185.33M1713.76 627.36h185.33M45.76 700.06H231.1M45.76 772.76H231.1M231.1 700.06h185.33M231.1 772.76h185.33M416.43 700.06h185.33M416.43 772.76h185.33M601.76 700.06H787.1M601.76 772.76H787.1M787.1 700.06h185.33M787.1 772.76h185.33M972.43 700.06h185.33M972.43 772.76h185.33M1157.76 700.06h185.33M1157.76 772.76h185.33M1343.1 700.06h185.33M1343.1 772.76h185.33M1528.43 700.06h185.33M1528.43 772.76h185.33M1713.76 700.06h185.33M1713.76 772.76h185.33" stroke="#000" fill="none"/><use xlink:href="#a" transform="matrix(1,0,0,1,50.76131687242801,50.7613168724281) translate(62.025 35.1)"/><defs><path d="M212-179c-10-28-35-45-73-45-59 0-87 40-87 99 0 60 29 101 89 101 43 0 62-24 78-52l27 14C228-24 195 4 139 4 59 4 22-46 18-125c-6-104 99-153 187-111 19 9 31 26 39 46" id="b"/><path d="M100-194c63 0 86 42 84 106H49c0 40 14 67 53 68 26 1 43-12 49-29l28 8c-11 28-37 45-77 45C44 4 14-33 15-96c1-61 26-98 85-98zm52 81c6-60-76-77-97-28-3 7-6 17-6 28h103" id="c"/><path d="M117-194c89-4 53 116 60 194h-32v-121c0-31-8-49-39-48C34-167 62-67 57 0H25l-1-190h30c1 10-1 24 2 32 11-22 29-35 61-36" id="d"/><path d="M141-36C126-15 110 5 73 4 37 3 15-17 15-53c-1-64 63-63 125-63 3-35-9-54-41-54-24 1-41 7-42 31l-33-3c5-37 33-52 76-52 45 0 72 20 72 64v82c-1 20 7 32 28 27v20c-31 9-61-2-59-35zM48-53c0 20 12 33 32 33 41-3 63-29 60-74-43 2-92-5-92 41" id="e"/><path d="M135-143c-3-34-86-38-87 0 15 53 115 12 119 90S17 21 10-45l28-5c4 36 97 45 98 0-10-56-113-15-118-90-4-57 82-63 122-42 12 7 21 19 24 35" id="f"/><g id="a"><use transform="matrix(0.05,0,0,0.05,0,0)" xlink:href="#b"/><use transform="matrix(0.05,0,0,0.05,12.950000000000001,0)" xlink:href="#c"/><use transform="matrix(0.05,0,0,0.05,22.950000000000003,0)" xlink:href="#d"/><use transform="matrix(0.05,0,0,0.05,32.95,0)" xlink:href="#e"/><use transform="matrix(0.05,0,0,0.05,42.95,0)" xlink:href="#f"/></g></defs></g></svg>