<svg xmlns="http://www.w3.org/2000/svg" xmlns:xlink="http://www.w3.org/1999/xlink" xmlns:lucid="lucid" width="838.06" height="479.63"><g transform="translate(0 0)" lucid:page-tab-id="XBPZJMkIejLH"><path d="M300 20h240v120H300z" stroke="#000" stroke-width="2" fill="#fff"/><use xlink:href="#a" transform="matrix(1,0,0,1,313,33) translate(29.999999999999986 40.3)"/><use xlink:href="#b" transform="matrix(1,0,0,1,313,33) translate(77.25 40.3)"/><use xlink:href="#c" transform="matrix(1,0,0,1,313,33) translate(75.55 61.9)"/><path d="M19.75 176.75h240v120h-240z" stroke="#000" stroke-width="2" fill="#fff"/><use xlink:href="#a" transform="matrix(1,0,0,1,24.753086419753117,181.7530864197531) translate(28.249999999999986 48.3)"/><use xlink:href="#d" transform="matrix(1,0,0,1,24.753086419753117,181.7530864197531) translate(75.5 48.3)"/><use xlink:href="#e" transform="matrix(1,0,0,1,24.753086419753117,181.7530864197531) translate(89.05 69.9)"/><path d="M579.75 176.75h240v120h-240z" stroke="#000" stroke-width="2" fill="#fff"/><use xlink:href="#a" transform="matrix(1,0,0,1,595.7530864197531,192.7530864197531) translate(28.224999999999994 37.3)"/><use xlink:href="#f" transform="matrix(1,0,0,1,595.7530864197531,192.7530864197531) translate(75.475 37.3)"/><use xlink:href="#g" transform="matrix(1,0,0,1,595.7530864197531,192.7530864197531) translate(58.05 58.9)"/><path d="M299.75 336.75h240v120h-240z" stroke="#000" stroke-width="2" fill="#fff"/><use xlink:href="#h" transform="matrix(1,0,0,1,304.7530864197531,341.7530864197531) translate(42.158588629782045 48.36694101508916)"/><use xlink:href="#i" transform="matrix(1,0,0,1,304.7530864197531,341.7530864197531) translate(88.96928821825941 48.36694101508916)"/><use xlink:href="#j" transform="matrix(1,0,0,1,304.7530864197531,341.7530864197531) translate(13.106233805822285 69.76611796982168)"/><use xlink:href="#k" transform="matrix(1,0,0,1,304.7530864197531,341.7530864197531) translate(65.51440329218107 69.76611796982168)"/><use xlink:href="#l" transform="matrix(1,0,0,1,304.7530864197531,341.7530864197531) translate(84.28821825941168 69.76611796982168)"/><use xlink:href="#m" transform="matrix(1,0,0,1,304.7530864197531,341.7530864197531) translate(156.55997561347357 69.76611796982168)"/><use xlink:href="#n" transform="matrix(1,0,0,1,304.7530864197531,341.7530864197531) translate(181.32754153330285 69.76611796982168)"/><g><path d="M412.42 178.75V132h-6.67l13.34-12 13.32 12h-6.67v46.75z" stroke="#000" stroke-width="2"/></g><g><path d="M319.75 236.8H251.9v6.62l-11.9-13.2L251.9 217v6.6h67.85z" stroke="#000" stroke-width="2"/></g><g><path d="M539.75 223.1h48v-6.68l12 13.33-12 13.34v-6.68h-48z" stroke="#000" stroke-width="2"/></g><g><path d="M425.2 296.75v46.5h6.8l-13.62 12.26-13.63-12.25h6.8v-46.5z" stroke="#000" stroke-width="2"/></g><g><path d="M425.2 296.75v46.5h6.8l-13.62 12.26-13.63-12.25h6.8v-46.5z" stroke="#000" stroke-width="2"/></g><g><path d="M425.2 296.75v46.5h6.8l-13.62 12.26-13.63-12.25h6.8v-46.5z" stroke="#000" stroke-width="2"/></g><g><path d="M539.75 223.1h48v-6.68l12 13.33-12 13.34v-6.68h-48z" stroke="#000" stroke-width="2"/></g><g><path d="M319.75 236.8H251.9v6.62l-11.9-13.2L251.9 217v6.6h67.85z" stroke="#000" stroke-width="2"/></g><path d="M300 179.82h240v120H300z" stroke="#000" stroke-width="2" fill="#e5e5e5"/><g><use xlink:href="#o" transform="matrix(1,0,0,1,312,191.8168724279385) translate(78.925 40.8)"/><use xlink:href="#p" transform="matrix(1,0,0,1,312,191.8168724279385) translate(72.525 62.4)"/></g><defs><path d="M147 0H94L2-248h55l64 206c17-72 42-137 63-206h54" id="q"/><path d="M24 0v-248h52V0H24" id="r"/><path d="M24-248c120-7 223 5 221 122C244-46 201 0 124 0H24v-248zM76-40c74 7 117-18 117-86 0-67-45-88-117-82v168" id="s"/><path d="M199 0l-22-63H83L61 0H9l90-248h61L250 0h-51zm-33-102l-36-108c-10 38-24 72-36 108h72" id="t"/><g id="a"><use transform="matrix(0.05,0,0,0.05,0,0)" xlink:href="#q"/><use transform="matrix(0.05,0,0,0.05,12,0)" xlink:href="#r"/><use transform="matrix(0.05,0,0,0.05,17,0)" xlink:href="#s"/><use transform="matrix(0.05,0,0,0.05,29.950000000000003,0)" xlink:href="#t"/></g><path d="M24 0v-248h195v40H76v63h132v40H76v65h150V0H24" id="u"/><path d="M169-182c-1-43-94-46-97-3 18 66 151 10 154 114 3 95-165 93-204 36-6-8-10-19-12-30l50-8c3 46 112 56 116 5-17-69-150-10-154-114-4-87 153-88 188-35 5 8 8 18 10 28" id="v"/><path d="M24-248c93 1 206-16 204 79-1 75-69 88-152 82V0H24v-248zm52 121c47 0 100 7 100-41 0-47-54-39-100-39v80" id="w"/><path d="M240-174c0 40-23 61-54 70L253 0h-59l-57-94H76V0H24v-248c93 4 217-23 216 74zM76-134c48-2 112 12 112-38 0-48-66-32-112-35v73" id="x"/><path d="M136-208V0H84v-208H4v-40h212v40h-80" id="y"/><path d="M238-95c0 69-44 99-111 99C63 4 22-25 22-93v-155h51v151c-1 38 19 59 55 60 90 1 49-130 58-211h52v153" id="z"/><path d="M24 0v-248h52v208h133V0H24" id="A"/><g id="b"><use transform="matrix(0.05,0,0,0.05,0,0)" xlink:href="#u"/><use transform="matrix(0.05,0,0,0.05,12,0)" xlink:href="#v"/><use transform="matrix(0.05,0,0,0.05,24,0)" xlink:href="#w"/><use transform="matrix(0.05,0,0,0.05,36,0)" xlink:href="#r"/><use transform="matrix(0.05,0,0,0.05,41,0)" xlink:href="#x"/><use transform="matrix(0.05,0,0,0.05,53.95,0)" xlink:href="#r"/><use transform="matrix(0.05,0,0,0.05,58.95,0)" xlink:href="#y"/><use transform="matrix(0.05,0,0,0.05,69.9,0)" xlink:href="#z"/><use transform="matrix(0.05,0,0,0.05,82.85000000000001,0)" xlink:href="#t"/><use transform="matrix(0.05,0,0,0.05,95.80000000000001,0)" xlink:href="#A"/></g><path d="M140-251c81 0 123 46 123 126C263-46 219 4 140 4 59 4 17-45 17-125s42-126 123-126zm0 227c63 0 89-41 89-101s-29-99-89-99c-61 0-89 39-89 99S79-25 140-24" id="B"/><path d="M114-163C36-179 61-72 57 0H25l-1-190h30c1 12-1 29 2 39 6-27 23-49 58-41v29" id="C"/><path d="M141-36C126-15 110 5 73 4 37 3 15-17 15-53c-1-64 63-63 125-63 3-35-9-54-41-54-24 1-41 7-42 31l-33-3c5-37 33-52 76-52 45 0 72 20 72 64v82c-1 20 7 32 28 27v20c-31 9-61-2-59-35zM48-53c0 20 12 33 32 33 41-3 63-29 60-74-43 2-92-5-92 41" id="D"/><path d="M96-169c-40 0-48 33-48 73s9 75 48 75c24 0 41-14 43-38l32 2c-6 37-31 61-74 61-59 0-76-41-82-99-10-93 101-131 147-64 4 7 5 14 7 22l-32 3c-4-21-16-35-41-35" id="E"/><path d="M24-231v-30h32v30H24zM24 0v-190h32V0H24" id="F"/><path d="M100-194c62-1 85 37 85 99 1 63-27 99-86 99S16-35 15-95c0-66 28-99 85-99zM99-20c44 1 53-31 53-75 0-43-8-75-51-75s-53 32-53 75 10 74 51 75zM76-211c8-23 27-35 38-54h36v5l-58 49H76" id="G"/><path d="M117-194c89-4 53 116 60 194h-32v-121c0-31-8-49-39-48C34-167 62-67 57 0H25l-1-190h30c1 10-1 24 2 32 11-22 29-35 61-36" id="H"/><g id="c"><use transform="matrix(0.05,0,0,0.05,0,0)" xlink:href="#B"/><use transform="matrix(0.05,0,0,0.05,14,0)" xlink:href="#C"/><use transform="matrix(0.05,0,0,0.05,19.95,0)" xlink:href="#D"/><use transform="matrix(0.05,0,0,0.05,29.950000000000003,0)" xlink:href="#E"/><use transform="matrix(0.05,0,0,0.05,38.95,0)" xlink:href="#F"/><use transform="matrix(0.05,0,0,0.05,42.900000000000006,0)" xlink:href="#G"/><use transform="matrix(0.05,0,0,0.05,52.900000000000006,0)" xlink:href="#H"/></g><path d="M67-125c0 53 21 87 73 88 37 1 54-22 65-47l45 17C233-25 199 4 140 4 58 4 20-42 15-125 8-235 124-281 211-232c18 10 29 29 36 50l-46 12c-8-25-30-41-62-41-52 0-71 34-72 86" id="I"/><path d="M140-251c80 0 125 45 125 126S219 4 139 4C58 4 15-44 15-125s44-126 125-126zm-1 214c52 0 73-35 73-88 0-50-21-86-72-86-52 0-73 35-73 86s22 88 72 88" id="J"/><path d="M230 0l2-204L168 0h-37L68-204 70 0H24v-248h70l56 185 57-185h69V0h-46" id="K"/><path d="M175 0L67-191c6 58 2 128 3 191H24v-248h59L193-55c-6-58-2-129-3-193h46V0h-61" id="L"/><g id="d"><use transform="matrix(0.05,0,0,0.05,0,0)" xlink:href="#I"/><use transform="matrix(0.05,0,0,0.05,12.950000000000001,0)" xlink:href="#J"/><use transform="matrix(0.05,0,0,0.05,26.950000000000003,0)" xlink:href="#K"/><use transform="matrix(0.05,0,0,0.05,41.900000000000006,0)" xlink:href="#z"/><use transform="matrix(0.05,0,0,0.05,54.85,0)" xlink:href="#L"/><use transform="matrix(0.05,0,0,0.05,67.80000000000001,0)" xlink:href="#r"/><use transform="matrix(0.05,0,0,0.05,72.80000000000001,0)" xlink:href="#y"/><use transform="matrix(0.05,0,0,0.05,82.40000000000002,0)" xlink:href="#t"/><use transform="matrix(0.05,0,0,0.05,95.35000000000002,0)" xlink:href="#x"/><use transform="matrix(0.05,0,0,0.05,108.30000000000003,0)" xlink:href="#r"/><use transform="matrix(0.05,0,0,0.05,113.30000000000003,0)" xlink:href="#t"/></g><path d="M33 0v-248h34V0H33" id="M"/><path d="M177-190C167-65 218 103 67 71c-23-6-38-20-44-43l32-5c15 47 100 32 89-28v-30C133-14 115 1 83 1 29 1 15-40 15-95c0-56 16-97 71-98 29-1 48 16 59 35 1-10 0-23 2-32h30zM94-22c36 0 50-32 50-73 0-42-14-75-50-75-39 0-46 34-46 75s6 73 46 73" id="N"/><path d="M24 0v-261h32V0H24" id="O"/><path d="M100-194c63 0 86 42 84 106H49c0 40 14 67 53 68 26 1 43-12 49-29l28 8c-11 28-37 45-77 45C44 4 14-33 15-96c1-61 26-98 85-98zm52 81c6-60-76-77-97-28-3 7-6 17-6 28h103" id="P"/><path d="M135-143c-3-34-86-38-87 0 15 53 115 12 119 90S17 21 10-45l28-5c4 36 97 45 98 0-10-56-113-15-118-90-4-57 82-63 122-42 12 7 21 19 24 35" id="Q"/><g id="e"><use transform="matrix(0.05,0,0,0.05,0,0)" xlink:href="#M"/><use transform="matrix(0.05,0,0,0.05,5,0)" xlink:href="#N"/><use transform="matrix(0.05,0,0,0.05,15,0)" xlink:href="#O"/><use transform="matrix(0.05,0,0,0.05,18.95,0)" xlink:href="#P"/><use transform="matrix(0.05,0,0,0.05,28.950000000000003,0)" xlink:href="#Q"/><use transform="matrix(0.05,0,0,0.05,37.95,0)" xlink:href="#F"/><use transform="matrix(0.05,0,0,0.05,41.900000000000006,0)" xlink:href="#D"/></g><path d="M182-130c37 4 62 22 62 59C244 23 116-4 24 0v-248c84 5 203-23 205 63 0 31-19 50-47 55zM76-148c40-3 101 13 101-30 0-44-60-28-101-31v61zm0 110c48-3 116 14 116-37 0-48-69-32-116-35v72" id="R"/><g id="f"><use transform="matrix(0.05,0,0,0.05,0,0)" xlink:href="#t"/><use transform="matrix(0.05,0,0,0.05,12.950000000000001,0)" xlink:href="#K"/><use transform="matrix(0.05,0,0,0.05,27.900000000000002,0)" xlink:href="#R"/><use transform="matrix(0.05,0,0,0.05,40.85,0)" xlink:href="#r"/><use transform="matrix(0.05,0,0,0.05,45.85,0)" xlink:href="#u"/><use transform="matrix(0.05,0,0,0.05,57.85,0)" xlink:href="#L"/><use transform="matrix(0.05,0,0,0.05,70.8,0)" xlink:href="#y"/><use transform="matrix(0.05,0,0,0.05,80.4,0)" xlink:href="#t"/><use transform="matrix(0.05,0,0,0.05,93.35000000000001,0)" xlink:href="#A"/></g><path d="M212-179c-10-28-35-45-73-45-59 0-87 40-87 99 0 60 29 101 89 101 43 0 62-24 78-52l27 14C228-24 195 4 139 4 59 4 22-46 18-125c-6-104 99-153 187-111 19 9 31 26 39 46" id="S"/><path d="M84 4C-5 8 30-112 23-190h32v120c0 31 7 50 39 49 72-2 45-101 50-169h31l1 190h-30c-1-10 1-25-2-33-11 22-28 36-60 37" id="T"/><path d="M85-194c31 0 48 13 60 33l-1-100h32l1 261h-30c-2-10 0-23-3-31C134-8 116 4 85 4 32 4 16-35 15-94c0-66 23-100 70-100zm9 24c-40 0-46 34-46 75 0 40 6 74 45 74 42 0 51-32 51-76 0-42-9-74-50-73" id="U"/><path d="M34 0v-190h32V0H34zM24-211c8-23 27-35 38-54h36v5l-58 49H24" id="V"/><g id="g"><use transform="matrix(0.05,0,0,0.05,0,0)" xlink:href="#S"/><use transform="matrix(0.05,0,0,0.05,12.950000000000001,0)" xlink:href="#F"/><use transform="matrix(0.05,0,0,0.05,16.900000000000002,0)" xlink:href="#T"/><use transform="matrix(0.05,0,0,0.05,26.900000000000002,0)" xlink:href="#U"/><use transform="matrix(0.05,0,0,0.05,36.900000000000006,0)" xlink:href="#D"/><use transform="matrix(0.05,0,0,0.05,46.900000000000006,0)" xlink:href="#U"/><use transform="matrix(0.05,0,0,0.05,56.900000000000006,0)" xlink:href="#D"/><use transform="matrix(0.05,0,0,0.05,66.9,0)" xlink:href="#H"/><use transform="matrix(0.05,0,0,0.05,76.9,0)" xlink:href="#V"/><use transform="matrix(0.05,0,0,0.05,81.9,0)" xlink:href="#D"/></g><g id="h"><use transform="matrix(0.04953513183965859,0,0,0.04953513183965859,0,0)" xlink:href="#q"/><use transform="matrix(0.04953513183965859,0,0,0.04953513183965859,11.88843164151806,0)" xlink:href="#r"/><use transform="matrix(0.04953513183965859,0,0,0.04953513183965859,16.84194482548392,0)" xlink:href="#s"/><use transform="matrix(0.04953513183965859,0,0,0.04953513183965859,29.671543971955494,0)" xlink:href="#t"/></g><g id="i"><use transform="matrix(0.04953513183965859,0,0,0.04953513183965859,0,0)" xlink:href="#w"/><use transform="matrix(0.04953513183965859,0,0,0.04953513183965859,11.88843164151806,0)" xlink:href="#u"/><use transform="matrix(0.04953513183965859,0,0,0.04953513183965859,23.77686328303612,0)" xlink:href="#x"/><use transform="matrix(0.04953513183965859,0,0,0.04953513183965859,36.606462429507694,0)" xlink:href="#v"/><use transform="matrix(0.04953513183965859,0,0,0.04953513183965859,48.494894071025755,0)" xlink:href="#J"/><use transform="matrix(0.04953513183965859,0,0,0.04953513183965859,62.364730986130155,0)" xlink:href="#L"/><use transform="matrix(0.04953513183965859,0,0,0.04953513183965859,75.19433013260173,0)" xlink:href="#t"/><use transform="matrix(0.04953513183965859,0,0,0.04953513183965859,88.02392927907331,0)" xlink:href="#A"/></g><path d="M197 0v-115H63V0H30v-248h33v105h134v-105h34V0h-34" id="W"/><g id="j"><use transform="matrix(0.04953513183965859,0,0,0.04953513183965859,0,0)" xlink:href="#W"/><use transform="matrix(0.04953513183965859,0,0,0.04953513183965859,12.829599146471574,0)" xlink:href="#D"/><use transform="matrix(0.04953513183965859,0,0,0.04953513183965859,22.736625514403293,0)" xlink:href="#E"/><use transform="matrix(0.04953513183965859,0,0,0.04953513183965859,31.652949245541837,0)" xlink:href="#P"/><use transform="matrix(0.04953513183965859,0,0,0.04953513183965859,41.559975613473554,0)" xlink:href="#C"/></g><g id="k"><use transform="matrix(0.04953513183965859,0,0,0.04953513183965859,0,0)" xlink:href="#O"/><use transform="matrix(0.04953513183965859,0,0,0.04953513183965859,3.9132754153330285,0)" xlink:href="#D"/></g><path d="M108 0H70L1-190h34L89-25l56-165h34" id="X"/><path d="M100-194c62-1 85 37 85 99 1 63-27 99-86 99S16-35 15-95c0-66 28-99 85-99zM99-20c44 1 53-31 53-75 0-43-8-75-51-75s-53 32-53 75 10 74 51 75" id="Y"/><path d="M59-47c-2 24 18 29 38 22v24C64 9 27 4 27-40v-127H5v-23h24l9-43h21v43h35v23H59v120" id="Z"/><g id="l"><use transform="matrix(0.04953513183965859,0,0,0.04953513183965859,0,0)" xlink:href="#X"/><use transform="matrix(0.04953513183965859,0,0,0.04953513183965859,8.916323731138545,0)" xlink:href="#Y"/><use transform="matrix(0.04953513183965859,0,0,0.04953513183965859,18.82335009907026,0)" xlink:href="#O"/><use transform="matrix(0.04953513183965859,0,0,0.04953513183965859,22.73662551440329,0)" xlink:href="#T"/><use transform="matrix(0.04953513183965859,0,0,0.04953513183965859,32.64365188233501,0)" xlink:href="#H"/><use transform="matrix(0.04953513183965859,0,0,0.04953513183965859,42.55067825026673,0)" xlink:href="#Z"/><use transform="matrix(0.04953513183965859,0,0,0.04953513183965859,47.50419143423259,0)" xlink:href="#D"/><use transform="matrix(0.04953513183965859,0,0,0.04953513183965859,57.4112178021643,0)" xlink:href="#U"/></g><g id="m"><use transform="matrix(0.04953513183965859,0,0,0.04953513183965859,0,0)" xlink:href="#U"/><use transform="matrix(0.04953513183965859,0,0,0.04953513183965859,9.907026367931717,0)" xlink:href="#P"/></g><path d="M30-248c118-7 216 8 213 122C240-48 200 0 122 0H30v-248zM63-27c89 8 146-16 146-99s-60-101-146-95v194" id="aa"/><g id="n"><use transform="matrix(0.04953513183965859,0,0,0.04953513183965859,0,0)" xlink:href="#aa"/><use transform="matrix(0.04953513183965859,0,0,0.04953513183965859,12.829599146471574,0)" xlink:href="#F"/><use transform="matrix(0.04953513183965859,0,0,0.04953513183965859,16.7428745618046,0)" xlink:href="#Y"/><use transform="matrix(0.04953513183965859,0,0,0.04953513183965859,26.649900929736322,0)" xlink:href="#Q"/></g><g id="o"><use transform="matrix(0.05,0,0,0.05,0,0)" xlink:href="#u"/><use transform="matrix(0.05,0,0,0.05,12,0)" xlink:href="#y"/><use transform="matrix(0.05,0,0,0.05,21.6,0)" xlink:href="#t"/><use transform="matrix(0.05,0,0,0.05,34.550000000000004,0)" xlink:href="#w"/><use transform="matrix(0.05,0,0,0.05,45.2,0)" xlink:href="#t"/></g><path d="M185-189c-5-48-123-54-124 2 14 75 158 14 163 119 3 78-121 87-175 55-17-10-28-26-33-46l33-7c5 56 141 63 141-1 0-78-155-14-162-118-5-82 145-84 179-34 5 7 8 16 11 25" id="ab"/><g id="p"><use transform="matrix(0.05,0,0,0.05,0,0)" xlink:href="#ab"/><use transform="matrix(0.05,0,0,0.05,12,0)" xlink:href="#D"/><use transform="matrix(0.05,0,0,0.05,22,0)" xlink:href="#H"/><use transform="matrix(0.05,0,0,0.05,32,0)" xlink:href="#Z"/><use transform="matrix(0.05,0,0,0.05,37,0)" xlink:href="#F"/><use transform="matrix(0.05,0,0,0.05,40.95,0)" xlink:href="#U"/><use transform="matrix(0.05,0,0,0.05,50.95,0)" xlink:href="#D"/><use transform="matrix(0.05,0,0,0.05,60.95,0)" xlink:href="#U"/></g></defs></g></svg>