<svg xmlns="http://www.w3.org/2000/svg" xmlns:xlink="http://www.w3.org/1999/xlink" xmlns:lucid="lucid" width="838.06" height="479.63"><g transform="translate(0 0)" lucid:page-tab-id="0_0"><path d="M299.75 19.75h240v120h-240z" stroke="#000" stroke-width="2" fill="#fff"/><use xlink:href="#a" transform="matrix(1,0,0,1,310.7530864197531,30.75308641975308) translate(31.999999999999986 42.3)"/><use xlink:href="#b" transform="matrix(1,0,0,1,310.7530864197531,30.75308641975308) translate(79.25 42.3)"/><use xlink:href="#c" transform="matrix(1,0,0,1,310.7530864197531,30.75308641975308) translate(25.625 63.9)"/><use xlink:href="#d" transform="matrix(1,0,0,1,310.7530864197531,30.75308641975308) translate(85.575 63.9)"/><use xlink:href="#e" transform="matrix(1,0,0,1,310.7530864197531,30.75308641975308) translate(116.525 63.9)"/><use xlink:href="#f" transform="matrix(1,0,0,1,310.7530864197531,30.75308641975308) translate(135.47500000000002 63.9)"/><path d="M19.75 176.75h240v120h-240z" stroke="#000" stroke-width="2" fill="#fff"/><use xlink:href="#a" transform="matrix(1,0,0,1,24.753086419753117,181.7530864197531) translate(28.249999999999986 48.3)"/><use xlink:href="#g" transform="matrix(1,0,0,1,24.753086419753117,181.7530864197531) translate(75.5 48.3)"/><use xlink:href="#h" transform="matrix(1,0,0,1,24.753086419753117,181.7530864197531) translate(28.125 69.9)"/><use xlink:href="#i" transform="matrix(1,0,0,1,24.753086419753117,181.7530864197531) translate(98.025 69.9)"/><use xlink:href="#j" transform="matrix(1,0,0,1,24.753086419753117,181.7530864197531) translate(108.025 69.9)"/><path d="M579.75 176.75h240v120h-240z" stroke="#000" stroke-width="2" fill="#fff"/><g><use xlink:href="#a" transform="matrix(1,0,0,1,584.7530864197531,181.7530864197531) translate(39.224999999999994 48.3)"/><use xlink:href="#k" transform="matrix(1,0,0,1,584.7530864197531,181.7530864197531) translate(86.475 48.3)"/><use xlink:href="#l" transform="matrix(1,0,0,1,584.7530864197531,181.7530864197531) translate(20.075000000000003 69.9)"/><use xlink:href="#m" transform="matrix(1,0,0,1,584.7530864197531,181.7530864197531) translate(80.025 69.9)"/><use xlink:href="#n" transform="matrix(1,0,0,1,584.7530864197531,181.7530864197531) translate(132.97500000000002 69.9)"/><use xlink:href="#o" transform="matrix(1,0,0,1,584.7530864197531,181.7530864197531) translate(161.925 69.9)"/><use xlink:href="#p" transform="matrix(1,0,0,1,584.7530864197531,181.7530864197531) translate(180.925 69.9)"/></g><path d="M299.75 336.75h240v120h-240z" stroke="#000" stroke-width="2" fill="#fff"/><g><use xlink:href="#q" transform="matrix(1,0,0,1,304.7530864197531,341.7530864197531) translate(42.158588629782045 48.36694101508916)"/><use xlink:href="#r" transform="matrix(1,0,0,1,304.7530864197531,341.7530864197531) translate(88.96928821825941 48.36694101508916)"/><use xlink:href="#s" transform="matrix(1,0,0,1,304.7530864197531,341.7530864197531) translate(76.93225118122237 69.76611796982168)"/></g><g class="lucid-layer" lucid:layer-id="UCRY.rb1WKjk" display="block"><path d="M412.42 178.75v-30.33h-6.67l13.34-12 13.32 12h-6.67v30.33z" stroke="#000" stroke-width="2" fill="#fff"/></g><g class="lucid-layer" lucid:layer-id="0DRYxbb2S0Lb" display="block"><path d="M319.75 236.75h-48v6.67l-12-13.33 12-13.35v6.67h48z" stroke="#000" stroke-width="2" fill="#fff"/></g><g class="lucid-layer" lucid:layer-id="TFRYD-8~PCWT" display="block"><path d="M539.75 223.1h28.34v-6.68l12 13.33-12 13.34v-6.68h-28.35z" stroke="#000" stroke-width="2" fill="#fff"/></g><g class="lucid-layer" lucid:layer-id="_FRYcMeQ-WEv" display="block"><path d="M424.75 296.75v30.34h6.67l-13.33 12-13.35-12h6.67v-30.35z" stroke="#000" stroke-width="2" fill="#fff"/></g><g class="lucid-layer" lucid:layer-id="tJRYxF.AvuHS" display="block"><path d="M299.75 178.25h240v120h-240z" stroke="#000" stroke-width="2" fill="#e5e5e5"/><use xlink:href="#t" transform="matrix(1,0,0,1,311.42308641975313,189.92308641975308) translate(79.425 30.5)"/><use xlink:href="#u" transform="matrix(1,0,0,1,311.42308641975313,189.92308641975308) translate(43.625 52.1)"/><use xlink:href="#d" transform="matrix(1,0,0,1,311.42308641975313,189.92308641975308) translate(117.47500000000001 52.1)"/><use xlink:href="#v" transform="matrix(1,0,0,1,311.42308641975313,189.92308641975308) translate(148.425 52.1)"/><use xlink:href="#w" transform="matrix(1,0,0,1,311.42308641975313,189.92308641975308) translate(38.55 73.7)"/><use xlink:href="#x" transform="matrix(1,0,0,1,311.42308641975313,189.92308641975308) translate(63.55 73.7)"/><use xlink:href="#y" transform="matrix(1,0,0,1,311.42308641975313,189.92308641975308) translate(129.45 73.7)"/></g><defs><path d="M147 0H94L2-248h55l64 206c17-72 42-137 63-206h54" id="z"/><path d="M24 0v-248h52V0H24" id="A"/><path d="M24-248c120-7 223 5 221 122C244-46 201 0 124 0H24v-248zM76-40c74 7 117-18 117-86 0-67-45-88-117-82v168" id="B"/><path d="M199 0l-22-63H83L61 0H9l90-248h61L250 0h-51zm-33-102l-36-108c-10 38-24 72-36 108h72" id="C"/><g id="a"><use transform="matrix(0.05,0,0,0.05,0,0)" xlink:href="#z"/><use transform="matrix(0.05,0,0,0.05,12,0)" xlink:href="#A"/><use transform="matrix(0.05,0,0,0.05,17,0)" xlink:href="#B"/><use transform="matrix(0.05,0,0,0.05,29.950000000000003,0)" xlink:href="#C"/></g><path d="M24 0v-248h195v40H76v63h132v40H76v65h150V0H24" id="D"/><path d="M169-182c-1-43-94-46-97-3 18 66 151 10 154 114 3 95-165 93-204 36-6-8-10-19-12-30l50-8c3 46 112 56 116 5-17-69-150-10-154-114-4-87 153-88 188-35 5 8 8 18 10 28" id="E"/><path d="M24-248c93 1 206-16 204 79-1 75-69 88-152 82V0H24v-248zm52 121c47 0 100 7 100-41 0-47-54-39-100-39v80" id="F"/><path d="M240-174c0 40-23 61-54 70L253 0h-59l-57-94H76V0H24v-248c93 4 217-23 216 74zM76-134c48-2 112 12 112-38 0-48-66-32-112-35v73" id="G"/><path d="M136-208V0H84v-208H4v-40h212v40h-80" id="H"/><path d="M238-95c0 69-44 99-111 99C63 4 22-25 22-93v-155h51v151c-1 38 19 59 55 60 90 1 49-130 58-211h52v153" id="I"/><path d="M24 0v-248h52v208h133V0H24" id="J"/><g id="b"><use transform="matrix(0.05,0,0,0.05,0,0)" xlink:href="#D"/><use transform="matrix(0.05,0,0,0.05,12,0)" xlink:href="#E"/><use transform="matrix(0.05,0,0,0.05,24,0)" xlink:href="#F"/><use transform="matrix(0.05,0,0,0.05,36,0)" xlink:href="#A"/><use transform="matrix(0.05,0,0,0.05,41,0)" xlink:href="#G"/><use transform="matrix(0.05,0,0,0.05,53.95,0)" xlink:href="#A"/><use transform="matrix(0.05,0,0,0.05,58.95,0)" xlink:href="#H"/><use transform="matrix(0.05,0,0,0.05,69.9,0)" xlink:href="#I"/><use transform="matrix(0.05,0,0,0.05,82.85000000000001,0)" xlink:href="#C"/><use transform="matrix(0.05,0,0,0.05,95.80000000000001,0)" xlink:href="#J"/></g><path d="M33 0v-248h34V0H33" id="K"/><path d="M117-194c89-4 53 116 60 194h-32v-121c0-31-8-49-39-48C34-167 62-67 57 0H25l-1-190h30c1 10-1 24 2 32 11-22 29-35 61-36" id="L"/><path d="M59-47c-2 24 18 29 38 22v24C64 9 27 4 27-40v-127H5v-23h24l9-43h21v43h35v23H59v120" id="M"/><path d="M100-194c63 0 86 42 84 106H49c0 40 14 67 53 68 26 1 43-12 49-29l28 8c-11 28-37 45-77 45C44 4 14-33 15-96c1-61 26-98 85-98zm52 81c6-60-76-77-97-28-3 7-6 17-6 28h103" id="N"/><path d="M114-163C36-179 61-72 57 0H25l-1-190h30c1 12-1 29 2 39 6-27 23-49 58-41v29" id="O"/><path d="M100-194c63 0 86 42 84 106H49c0 40 14 67 53 68 26 1 43-12 49-29l28 8c-11 28-37 45-77 45C44 4 14-33 15-96c1-61 26-98 85-98zm52 81c6-60-76-77-97-28-3 7-6 17-6 28h103zm-74-98c8-23 27-35 38-54h36v5l-58 49H78" id="P"/><path d="M135-143c-3-34-86-38-87 0 15 53 115 12 119 90S17 21 10-45l28-5c4 36 97 45 98 0-10-56-113-15-118-90-4-57 82-63 122-42 12 7 21 19 24 35" id="Q"/><g id="c"><use transform="matrix(0.05,0,0,0.05,0,0)" xlink:href="#K"/><use transform="matrix(0.05,0,0,0.05,5,0)" xlink:href="#L"/><use transform="matrix(0.05,0,0,0.05,15,0)" xlink:href="#M"/><use transform="matrix(0.05,0,0,0.05,20,0)" xlink:href="#N"/><use transform="matrix(0.05,0,0,0.05,30,0)" xlink:href="#O"/><use transform="matrix(0.05,0,0,0.05,35.95,0)" xlink:href="#P"/><use transform="matrix(0.05,0,0,0.05,45.95,0)" xlink:href="#Q"/></g><path d="M115-194c55 1 70 41 70 98S169 2 115 4C84 4 66-9 55-30l1 105H24l-1-265h31l2 30c10-21 28-34 59-34zm-8 174c40 0 45-34 45-75s-6-73-45-74c-42 0-51 32-51 76 0 43 10 73 51 73" id="R"/><path d="M100-194c62-1 85 37 85 99 1 63-27 99-86 99S16-35 15-95c0-66 28-99 85-99zM99-20c44 1 53-31 53-75 0-43-8-75-51-75s-53 32-53 75 10 74 51 75" id="S"/><g id="d"><use transform="matrix(0.05,0,0,0.05,0,0)" xlink:href="#R"/><use transform="matrix(0.05,0,0,0.05,10,0)" xlink:href="#S"/><use transform="matrix(0.05,0,0,0.05,20,0)" xlink:href="#O"/></g><path d="M24 0v-261h32V0H24" id="T"/><path d="M141-36C126-15 110 5 73 4 37 3 15-17 15-53c-1-64 63-63 125-63 3-35-9-54-41-54-24 1-41 7-42 31l-33-3c5-37 33-52 76-52 45 0 72 20 72 64v82c-1 20 7 32 28 27v20c-31 9-61-2-59-35zM48-53c0 20 12 33 32 33 41-3 63-29 60-74-43 2-92-5-92 41" id="U"/><g id="e"><use transform="matrix(0.05,0,0,0.05,0,0)" xlink:href="#T"/><use transform="matrix(0.05,0,0,0.05,3.95,0)" xlink:href="#U"/></g><path d="M210-169c-67 3-38 105-44 169h-31v-121c0-29-5-50-35-48C34-165 62-65 56 0H25l-1-190h30c1 10-1 24 2 32 10-44 99-50 107 0 11-21 27-35 58-36 85-2 47 119 55 194h-31v-121c0-29-5-49-35-48" id="V"/><path d="M34 0v-190h32V0H34zM24-211c8-23 27-35 38-54h36v5l-58 49H24" id="W"/><path d="M24-231v-30h32v30H24zM24 0v-190h32V0H24" id="X"/><path d="M96-169c-40 0-48 33-48 73s9 75 48 75c24 0 41-14 43-38l32 2c-6 37-31 61-74 61-59 0-76-41-82-99-10-93 101-131 147-64 4 7 5 14 7 22l-32 3c-4-21-16-35-41-35" id="Y"/><g id="f"><use transform="matrix(0.05,0,0,0.05,0,0)" xlink:href="#V"/><use transform="matrix(0.05,0,0,0.05,14.950000000000001,0)" xlink:href="#W"/><use transform="matrix(0.05,0,0,0.05,19.950000000000003,0)" xlink:href="#Q"/><use transform="matrix(0.05,0,0,0.05,28.950000000000003,0)" xlink:href="#M"/><use transform="matrix(0.05,0,0,0.05,33.95,0)" xlink:href="#X"/><use transform="matrix(0.05,0,0,0.05,37.900000000000006,0)" xlink:href="#Y"/><use transform="matrix(0.05,0,0,0.05,46.900000000000006,0)" xlink:href="#U"/></g><path d="M67-125c0 53 21 87 73 88 37 1 54-22 65-47l45 17C233-25 199 4 140 4 58 4 20-42 15-125 8-235 124-281 211-232c18 10 29 29 36 50l-46 12c-8-25-30-41-62-41-52 0-71 34-72 86" id="Z"/><path d="M140-251c80 0 125 45 125 126S219 4 139 4C58 4 15-44 15-125s44-126 125-126zm-1 214c52 0 73-35 73-88 0-50-21-86-72-86-52 0-73 35-73 86s22 88 72 88" id="aa"/><path d="M230 0l2-204L168 0h-37L68-204 70 0H24v-248h70l56 185 57-185h69V0h-46" id="ab"/><path d="M175 0L67-191c6 58 2 128 3 191H24v-248h59L193-55c-6-58-2-129-3-193h46V0h-61" id="ac"/><g id="g"><use transform="matrix(0.05,0,0,0.05,0,0)" xlink:href="#Z"/><use transform="matrix(0.05,0,0,0.05,12.950000000000001,0)" xlink:href="#aa"/><use transform="matrix(0.05,0,0,0.05,26.950000000000003,0)" xlink:href="#ab"/><use transform="matrix(0.05,0,0,0.05,41.900000000000006,0)" xlink:href="#I"/><use transform="matrix(0.05,0,0,0.05,54.85,0)" xlink:href="#ac"/><use transform="matrix(0.05,0,0,0.05,67.80000000000001,0)" xlink:href="#A"/><use transform="matrix(0.05,0,0,0.05,72.80000000000001,0)" xlink:href="#H"/><use transform="matrix(0.05,0,0,0.05,82.40000000000002,0)" xlink:href="#C"/><use transform="matrix(0.05,0,0,0.05,95.35000000000002,0)" xlink:href="#G"/><use transform="matrix(0.05,0,0,0.05,108.30000000000003,0)" xlink:href="#A"/><use transform="matrix(0.05,0,0,0.05,113.30000000000003,0)" xlink:href="#C"/></g><path d="M205 0l-28-72H64L36 0H1l101-248h38L239 0h-34zm-38-99l-47-123c-12 45-31 82-46 123h93" id="ad"/><path d="M85-194c31 0 48 13 60 33l-1-100h32l1 261h-30c-2-10 0-23-3-31C134-8 116 4 85 4 32 4 16-35 15-94c0-66 23-100 70-100zm9 24c-40 0-46 34-46 75 0 40 6 74 45 74 42 0 51-32 51-76 0-42-9-74-50-73" id="ae"/><g id="h"><use transform="matrix(0.05,0,0,0.05,0,0)" xlink:href="#ad"/><use transform="matrix(0.05,0,0,0.05,12,0)" xlink:href="#V"/><use transform="matrix(0.05,0,0,0.05,26.950000000000003,0)" xlink:href="#X"/><use transform="matrix(0.05,0,0,0.05,30.900000000000002,0)" xlink:href="#Q"/><use transform="matrix(0.05,0,0,0.05,39.900000000000006,0)" xlink:href="#M"/><use transform="matrix(0.05,0,0,0.05,44.900000000000006,0)" xlink:href="#U"/><use transform="matrix(0.05,0,0,0.05,54.900000000000006,0)" xlink:href="#ae"/></g><path d="M0 4l72-265h28L28 4H0" id="af"/><use transform="matrix(0.05,0,0,0.05,0,0)" xlink:href="#af" id="i"/><path d="M197 0v-115H63V0H30v-248h33v105h134v-105h34V0h-34" id="ag"/><g id="j"><use transform="matrix(0.05,0,0,0.05,0,0)" xlink:href="#ag"/><use transform="matrix(0.05,0,0,0.05,12.950000000000001,0)" xlink:href="#N"/><use transform="matrix(0.05,0,0,0.05,22.950000000000003,0)" xlink:href="#O"/><use transform="matrix(0.05,0,0,0.05,28.900000000000002,0)" xlink:href="#V"/><use transform="matrix(0.05,0,0,0.05,43.85,0)" xlink:href="#U"/><use transform="matrix(0.05,0,0,0.05,53.85,0)" xlink:href="#L"/><use transform="matrix(0.05,0,0,0.05,63.85,0)" xlink:href="#ae"/><use transform="matrix(0.05,0,0,0.05,73.85,0)" xlink:href="#U"/><use transform="matrix(0.05,0,0,0.05,83.85,0)" xlink:href="#ae"/></g><path d="M182-130c37 4 62 22 62 59C244 23 116-4 24 0v-248c84 5 203-23 205 63 0 31-19 50-47 55zM76-148c40-3 101 13 101-30 0-44-60-28-101-31v61zm0 110c48-3 116 14 116-37 0-48-69-32-116-35v72" id="ah"/><g id="k"><use transform="matrix(0.05,0,0,0.05,0,0)" xlink:href="#C"/><use transform="matrix(0.05,0,0,0.05,12.950000000000001,0)" xlink:href="#ab"/><use transform="matrix(0.05,0,0,0.05,27.900000000000002,0)" xlink:href="#ah"/><use transform="matrix(0.05,0,0,0.05,40.85,0)" xlink:href="#A"/><use transform="matrix(0.05,0,0,0.05,45.85,0)" xlink:href="#D"/><use transform="matrix(0.05,0,0,0.05,57.85,0)" xlink:href="#ac"/><use transform="matrix(0.05,0,0,0.05,70.8,0)" xlink:href="#H"/><use transform="matrix(0.05,0,0,0.05,80.4,0)" xlink:href="#C"/><use transform="matrix(0.05,0,0,0.05,93.35000000000001,0)" xlink:href="#J"/></g><path d="M240 0l2-218c-23 76-54 145-80 218h-23L58-218 59 0H30v-248h44l77 211c21-75 51-140 76-211h43V0h-30" id="ai"/><path d="M84 4C-5 8 30-112 23-190h32v120c0 31 7 50 39 49 72-2 45-101 50-169h31l1 190h-30c-1-10 1-25-2-33-11 22-28 36-60 37" id="aj"/><g id="l"><use transform="matrix(0.05,0,0,0.05,0,0)" xlink:href="#ai"/><use transform="matrix(0.05,0,0,0.05,14.950000000000001,0)" xlink:href="#aj"/><use transform="matrix(0.05,0,0,0.05,24.950000000000003,0)" xlink:href="#L"/><use transform="matrix(0.05,0,0,0.05,34.95,0)" xlink:href="#ae"/><use transform="matrix(0.05,0,0,0.05,44.95,0)" xlink:href="#S"/></g><g id="m"><use transform="matrix(0.05,0,0,0.05,0,0)" xlink:href="#U"/><use transform="matrix(0.05,0,0,0.05,10,0)" xlink:href="#Y"/><use transform="matrix(0.05,0,0,0.05,19,0)" xlink:href="#M"/><use transform="matrix(0.05,0,0,0.05,24,0)" xlink:href="#aj"/><use transform="matrix(0.05,0,0,0.05,34,0)" xlink:href="#U"/><use transform="matrix(0.05,0,0,0.05,44,0)" xlink:href="#T"/></g><g id="n"><use transform="matrix(0.05,0,0,0.05,0,0)" xlink:href="#ae"/><use transform="matrix(0.05,0,0,0.05,10,0)" xlink:href="#N"/><use transform="matrix(0.05,0,0,0.05,20,0)" xlink:href="#T"/></g><path d="M33 0v-38h34V0H33" id="ak"/><g id="o"><use transform="matrix(0.05,0,0,0.05,0,0)" xlink:href="#Q"/><use transform="matrix(0.05,0,0,0.05,9,0)" xlink:href="#ak"/></g><path d="M195 0l-74-108L45 0H8l94-129-87-119h37l69 98 67-98h37l-84 118L233 0h-38" id="al"/><g id="p"><use transform="matrix(0.05,0,0,0.05,0,0)" xlink:href="#al"/><use transform="matrix(0.05,0,0,0.05,12,0)" xlink:href="#al"/><use transform="matrix(0.05,0,0,0.05,24,0)" xlink:href="#K"/></g><g id="q"><use transform="matrix(0.04953513183965859,0,0,0.04953513183965859,0,0)" xlink:href="#z"/><use transform="matrix(0.04953513183965859,0,0,0.04953513183965859,11.88843164151806,0)" xlink:href="#A"/><use transform="matrix(0.04953513183965859,0,0,0.04953513183965859,16.84194482548392,0)" xlink:href="#B"/><use transform="matrix(0.04953513183965859,0,0,0.04953513183965859,29.671543971955494,0)" xlink:href="#C"/></g><g id="r"><use transform="matrix(0.04953513183965859,0,0,0.04953513183965859,0,0)" xlink:href="#F"/><use transform="matrix(0.04953513183965859,0,0,0.04953513183965859,11.88843164151806,0)" xlink:href="#D"/><use transform="matrix(0.04953513183965859,0,0,0.04953513183965859,23.77686328303612,0)" xlink:href="#G"/><use transform="matrix(0.04953513183965859,0,0,0.04953513183965859,36.606462429507694,0)" xlink:href="#E"/><use transform="matrix(0.04953513183965859,0,0,0.04953513183965859,48.494894071025755,0)" xlink:href="#aa"/><use transform="matrix(0.04953513183965859,0,0,0.04953513183965859,62.364730986130155,0)" xlink:href="#ac"/><use transform="matrix(0.04953513183965859,0,0,0.04953513183965859,75.19433013260173,0)" xlink:href="#C"/><use transform="matrix(0.04953513183965859,0,0,0.04953513183965859,88.02392927907331,0)" xlink:href="#J"/></g><g id="s"><use transform="matrix(0.04953513183965859,0,0,0.04953513183965859,0,0)" xlink:href="#K"/><use transform="matrix(0.04953513183965859,0,0,0.04953513183965859,4.953513183965859,0)" xlink:href="#ae"/><use transform="matrix(0.04953513183965859,0,0,0.04953513183965859,14.860539551897576,0)" xlink:href="#N"/><use transform="matrix(0.04953513183965859,0,0,0.04953513183965859,24.767565919829295,0)" xlink:href="#U"/><use transform="matrix(0.04953513183965859,0,0,0.04953513183965859,34.674592287761016,0)" xlink:href="#T"/><use transform="matrix(0.04953513183965859,0,0,0.04953513183965859,38.58786770309404,0)" xlink:href="#X"/><use transform="matrix(0.04953513183965859,0,0,0.04953513183965859,42.501143118427066,0)" xlink:href="#Q"/><use transform="matrix(0.04953513183965859,0,0,0.04953513183965859,51.41746684956561,0)" xlink:href="#V"/><use transform="matrix(0.04953513183965859,0,0,0.04953513183965859,66.22847126962353,0)" xlink:href="#S"/></g><g id="t"><use transform="matrix(0.05,0,0,0.05,0,0)" xlink:href="#D"/><use transform="matrix(0.05,0,0,0.05,12,0)" xlink:href="#H"/><use transform="matrix(0.05,0,0,0.05,21.6,0)" xlink:href="#C"/><use transform="matrix(0.05,0,0,0.05,34.550000000000004,0)" xlink:href="#F"/><use transform="matrix(0.05,0,0,0.05,45.2,0)" xlink:href="#C"/></g><path d="M30-248c118-7 216 8 213 122C240-48 200 0 122 0H30v-248zM63-27c89 8 146-16 146-99s-60-101-146-95v194" id="am"/><path d="M100-194c62-1 85 37 85 99 1 63-27 99-86 99S16-35 15-95c0-66 28-99 85-99zM99-20c44 1 53-31 53-75 0-43-8-75-51-75s-53 32-53 75 10 74 51 75zM76-211c8-23 27-35 38-54h36v5l-58 49H76" id="an"/><g id="u"><use transform="matrix(0.05,0,0,0.05,0,0)" xlink:href="#am"/><use transform="matrix(0.05,0,0,0.05,12.950000000000001,0)" xlink:href="#N"/><use transform="matrix(0.05,0,0,0.05,22.950000000000003,0)" xlink:href="#Y"/><use transform="matrix(0.05,0,0,0.05,31.950000000000003,0)" xlink:href="#X"/><use transform="matrix(0.05,0,0,0.05,35.900000000000006,0)" xlink:href="#Q"/><use transform="matrix(0.05,0,0,0.05,44.900000000000006,0)" xlink:href="#X"/><use transform="matrix(0.05,0,0,0.05,48.85000000000001,0)" xlink:href="#an"/><use transform="matrix(0.05,0,0,0.05,58.85,0)" xlink:href="#L"/></g><g id="v"><use transform="matrix(0.05,0,0,0.05,0,0)" xlink:href="#Q"/><use transform="matrix(0.05,0,0,0.05,9,0)" xlink:href="#N"/><use transform="matrix(0.05,0,0,0.05,19,0)" xlink:href="#O"/></g><g id="w"><use transform="matrix(0.05,0,0,0.05,0,0)" xlink:href="#aj"/><use transform="matrix(0.05,0,0,0.05,10,0)" xlink:href="#L"/></g><path d="M106-169C34-169 62-67 57 0H25v-261h32l-1 103c12-21 28-36 61-36 89 0 53 116 60 194h-32v-121c2-32-8-49-39-48" id="ao"/><path d="M115-194c53 0 69 39 70 98 0 66-23 100-70 100C84 3 66-7 56-30L54 0H23l1-261h32v101c10-23 28-34 59-34zm-8 174c40 0 45-34 45-75 0-40-5-75-45-74-42 0-51 32-51 76 0 43 10 73 51 73" id="ap"/><g id="x"><use transform="matrix(0.05,0,0,0.05,0,0)" xlink:href="#ao"/><use transform="matrix(0.05,0,0,0.05,10,0)" xlink:href="#S"/><use transform="matrix(0.05,0,0,0.05,20,0)" xlink:href="#V"/><use transform="matrix(0.05,0,0,0.05,34.95,0)" xlink:href="#ap"/><use transform="matrix(0.05,0,0,0.05,44.95,0)" xlink:href="#O"/><use transform="matrix(0.05,0,0,0.05,50.900000000000006,0)" xlink:href="#N"/></g><path d="M108 0H70L1-190h34L89-25l56-165h34" id="aq"/><g id="y"><use transform="matrix(0.05,0,0,0.05,0,0)" xlink:href="#L"/><use transform="matrix(0.05,0,0,0.05,10,0)" xlink:href="#aj"/><use transform="matrix(0.05,0,0,0.05,20,0)" xlink:href="#N"/><use transform="matrix(0.05,0,0,0.05,30,0)" xlink:href="#aq"/><use transform="matrix(0.05,0,0,0.05,39,0)" xlink:href="#S"/></g></defs></g></svg>