<svg xmlns="http://www.w3.org/2000/svg" xmlns:xlink="http://www.w3.org/1999/xlink" xmlns:lucid="lucid" width="838.06" height="479.63"><g transform="translate(0 0)" lucid:page-tab-id="3OJZqarDuMCc"><path d="M300 20h240v120H300z" stroke="#000" stroke-width="2" fill="#fff"/><use xlink:href="#a" transform="matrix(1,0,0,1,313,33) translate(29.999999999999986 29)"/><use xlink:href="#b" transform="matrix(1,0,0,1,313,33) translate(77.25 29)"/><use xlink:href="#c" transform="matrix(1,0,0,1,313,33) translate(6.324999999999989 50.6)"/><use xlink:href="#d" transform="matrix(1,0,0,1,313,33) translate(102.825 50.6)"/><use xlink:href="#e" transform="matrix(1,0,0,1,313,33) translate(117.825 50.6)"/><use xlink:href="#f" transform="matrix(1,0,0,1,313,33) translate(168.72500000000002 50.6)"/><use xlink:href="#g" transform="matrix(1,0,0,1,313,33) translate(193.72500000000002 50.6)"/><use xlink:href="#h" transform="matrix(1,0,0,1,313,33) translate(68.55 72.2)"/><path d="M19.75 176.75h240v120h-240z" stroke="#000" stroke-width="2" fill="#fff"/><use xlink:href="#a" transform="matrix(1,0,0,1,24.753086419753117,181.7530864197531) translate(28.249999999999986 48.3)"/><use xlink:href="#i" transform="matrix(1,0,0,1,24.753086419753117,181.7530864197531) translate(75.5 48.3)"/><use xlink:href="#j" transform="matrix(1,0,0,1,24.753086419753117,181.7530864197531) translate(38.099999999999994 69.9)"/><use xlink:href="#k" transform="matrix(1,0,0,1,24.753086419753117,181.7530864197531) translate(103 69.9)"/><path d="M579.75 176.75h240v120h-240z" stroke="#000" stroke-width="2" fill="#fff"/><use xlink:href="#a" transform="matrix(1,0,0,1,595.7530864197531,192.7530864197531) translate(28.224999999999994 15.19999999999999)"/><use xlink:href="#l" transform="matrix(1,0,0,1,595.7530864197531,192.7530864197531) translate(75.475 15.19999999999999)"/><use xlink:href="#m" transform="matrix(1,0,0,1,595.7530864197531,192.7530864197531) translate(23.599999999999994 36.79999999999999)"/><use xlink:href="#n" transform="matrix(1,0,0,1,595.7530864197531,192.7530864197531) translate(104.55 36.79999999999999)"/><use xlink:href="#o" transform="matrix(1,0,0,1,595.7530864197531,192.7530864197531) translate(11.125 58.39999999999999)"/><use xlink:href="#p" transform="matrix(1,0,0,1,595.7530864197531,192.7530864197531) translate(93.075 58.39999999999999)"/><use xlink:href="#q" transform="matrix(1,0,0,1,595.7530864197531,192.7530864197531) translate(22.299999999999997 80)"/><use xlink:href="#r" transform="matrix(1,0,0,1,595.7530864197531,192.7530864197531) translate(73.55 80)"/><use xlink:href="#s" transform="matrix(1,0,0,1,595.7530864197531,192.7530864197531) translate(92.5 80)"/><path d="M299.75 340h240v120h-240z" stroke="#000" stroke-width="2" fill="#fff"/><g><use xlink:href="#t" transform="matrix(1,0,0,1,304.7530864197531,345) translate(42.158588629782045 48.36694101508916)"/><use xlink:href="#u" transform="matrix(1,0,0,1,304.7530864197531,345) translate(88.96928821825941 48.36694101508916)"/><use xlink:href="#v" transform="matrix(1,0,0,1,304.7530864197531,345) translate(29.948178631306206 69.76611796982168)"/><use xlink:href="#w" transform="matrix(1,0,0,1,304.7530864197531,345) translate(62.59183051364121 69.76611796982168)"/><use xlink:href="#x" transform="matrix(1,0,0,1,304.7530864197531,345) translate(135.75522024081693 69.76611796982168)"/></g><g><path d="M412.42 178.75V132h-6.67l13.34-12 13.32 12h-6.67v46.75z" stroke="#000" stroke-width="2"/></g><g><path d="M319.75 236.8H251.9v6.62l-11.9-13.2L251.9 217v6.6h67.85z" stroke="#000" stroke-width="2"/></g><g><path d="M539.75 223.1h48v-6.68l12 13.33-12 13.34v-6.68h-48z" stroke="#000" stroke-width="2"/></g><g><path d="M425.2 296.75v46.5h6.8l-13.62 12.26-13.63-12.25h6.8v-46.5z" stroke="#000" stroke-width="2"/></g><g><path d="M425.2 296.75v46.5h6.8l-13.62 12.26-13.63-12.25h6.8v-46.5z" stroke="#000" stroke-width="2"/></g><g><path d="M425.2 296.75v46.5h6.8l-13.62 12.26-13.63-12.25h6.8v-46.5z" stroke="#000" stroke-width="2"/></g><g><path d="M539.75 223.1h48v-6.68l12 13.33-12 13.34v-6.68h-48z" stroke="#000" stroke-width="2"/></g><g><path d="M319.75 236.8H251.9v6.62l-11.9-13.2L251.9 217v6.6h67.85z" stroke="#000" stroke-width="2"/></g><path d="M300 179.82h240v120H300z" stroke="#000" stroke-width="2" fill="#e5e5e5"/><g><use xlink:href="#y" transform="matrix(1,0,0,1,312,191.8168724279385) translate(78.925 30)"/><use xlink:href="#z" transform="matrix(1,0,0,1,312,191.8168724279385) translate(32.099999999999994 51.6)"/><use xlink:href="#A" transform="matrix(1,0,0,1,312,191.8168724279385) translate(118 51.6)"/><use xlink:href="#B" transform="matrix(1,0,0,1,312,191.8168724279385) translate(133 51.6)"/><use xlink:href="#C" transform="matrix(1,0,0,1,312,191.8168724279385) translate(9.625 73.2)"/><use xlink:href="#D" transform="matrix(1,0,0,1,312,191.8168724279385) translate(94.475 73.2)"/><use xlink:href="#E" transform="matrix(1,0,0,1,312,191.8168724279385) translate(119.475 73.2)"/><use xlink:href="#F" transform="matrix(1,0,0,1,312,191.8168724279385) translate(138.42499999999998 73.2)"/></g><defs><path d="M147 0H94L2-248h55l64 206c17-72 42-137 63-206h54" id="G"/><path d="M24 0v-248h52V0H24" id="H"/><path d="M24-248c120-7 223 5 221 122C244-46 201 0 124 0H24v-248zM76-40c74 7 117-18 117-86 0-67-45-88-117-82v168" id="I"/><path d="M199 0l-22-63H83L61 0H9l90-248h61L250 0h-51zm-33-102l-36-108c-10 38-24 72-36 108h72" id="J"/><g id="a"><use transform="matrix(0.05,0,0,0.05,0,0)" xlink:href="#G"/><use transform="matrix(0.05,0,0,0.05,12,0)" xlink:href="#H"/><use transform="matrix(0.05,0,0,0.05,17,0)" xlink:href="#I"/><use transform="matrix(0.05,0,0,0.05,29.950000000000003,0)" xlink:href="#J"/></g><path d="M24 0v-248h195v40H76v63h132v40H76v65h150V0H24" id="K"/><path d="M169-182c-1-43-94-46-97-3 18 66 151 10 154 114 3 95-165 93-204 36-6-8-10-19-12-30l50-8c3 46 112 56 116 5-17-69-150-10-154-114-4-87 153-88 188-35 5 8 8 18 10 28" id="L"/><path d="M24-248c93 1 206-16 204 79-1 75-69 88-152 82V0H24v-248zm52 121c47 0 100 7 100-41 0-47-54-39-100-39v80" id="M"/><path d="M240-174c0 40-23 61-54 70L253 0h-59l-57-94H76V0H24v-248c93 4 217-23 216 74zM76-134c48-2 112 12 112-38 0-48-66-32-112-35v73" id="N"/><path d="M136-208V0H84v-208H4v-40h212v40h-80" id="O"/><path d="M238-95c0 69-44 99-111 99C63 4 22-25 22-93v-155h51v151c-1 38 19 59 55 60 90 1 49-130 58-211h52v153" id="P"/><path d="M24 0v-248h52v208h133V0H24" id="Q"/><g id="b"><use transform="matrix(0.05,0,0,0.05,0,0)" xlink:href="#K"/><use transform="matrix(0.05,0,0,0.05,12,0)" xlink:href="#L"/><use transform="matrix(0.05,0,0,0.05,24,0)" xlink:href="#M"/><use transform="matrix(0.05,0,0,0.05,36,0)" xlink:href="#H"/><use transform="matrix(0.05,0,0,0.05,41,0)" xlink:href="#N"/><use transform="matrix(0.05,0,0,0.05,53.95,0)" xlink:href="#H"/><use transform="matrix(0.05,0,0,0.05,58.95,0)" xlink:href="#O"/><use transform="matrix(0.05,0,0,0.05,69.9,0)" xlink:href="#P"/><use transform="matrix(0.05,0,0,0.05,82.85000000000001,0)" xlink:href="#J"/><use transform="matrix(0.05,0,0,0.05,95.80000000000001,0)" xlink:href="#Q"/></g><path d="M137 0h-34L2-248h35l83 218 83-218h36" id="R"/><path d="M24-231v-30h32v30H24zM24 0v-190h32V0H24" id="S"/><path d="M117-194c89-4 53 116 60 194h-32v-121c0-31-8-49-39-48C34-167 62-67 57 0H25l-1-190h30c1 10-1 24 2 32 11-22 29-35 61-36" id="T"/><path d="M96-169c-40 0-48 33-48 73s9 75 48 75c24 0 41-14 43-38l32 2c-6 37-31 61-74 61-59 0-76-41-82-99-10-93 101-131 147-64 4 7 5 14 7 22l-32 3c-4-21-16-35-41-35" id="U"/><path d="M84 4C-5 8 30-112 23-190h32v120c0 31 7 50 39 49 72-2 45-101 50-169h31l1 190h-30c-1-10 1-25-2-33-11 22-28 36-60 37" id="V"/><path d="M24 0v-261h32V0H24" id="W"/><path d="M141-36C126-15 110 5 73 4 37 3 15-17 15-53c-1-64 63-63 125-63 3-35-9-54-41-54-24 1-41 7-42 31l-33-3c5-37 33-52 76-52 45 0 72 20 72 64v82c-1 20 7 32 28 27v20c-31 9-61-2-59-35zM48-53c0 20 12 33 32 33 41-3 63-29 60-74-43 2-92-5-92 41" id="X"/><path d="M100-194c62-1 85 37 85 99 1 63-27 99-86 99S16-35 15-95c0-66 28-99 85-99zM99-20c44 1 53-31 53-75 0-43-8-75-51-75s-53 32-53 75 10 74 51 75zM76-211c8-23 27-35 38-54h36v5l-58 49H76" id="Y"/><g id="c"><use transform="matrix(0.05,0,0,0.05,0,0)" xlink:href="#R"/><use transform="matrix(0.05,0,0,0.05,11.65,0)" xlink:href="#S"/><use transform="matrix(0.05,0,0,0.05,15.600000000000001,0)" xlink:href="#T"/><use transform="matrix(0.05,0,0,0.05,25.6,0)" xlink:href="#U"/><use transform="matrix(0.05,0,0,0.05,34.6,0)" xlink:href="#V"/><use transform="matrix(0.05,0,0,0.05,44.6,0)" xlink:href="#W"/><use transform="matrix(0.05,0,0,0.05,48.550000000000004,0)" xlink:href="#X"/><use transform="matrix(0.05,0,0,0.05,58.550000000000004,0)" xlink:href="#U"/><use transform="matrix(0.05,0,0,0.05,67.55000000000001,0)" xlink:href="#S"/><use transform="matrix(0.05,0,0,0.05,71.50000000000001,0)" xlink:href="#Y"/><use transform="matrix(0.05,0,0,0.05,81.50000000000001,0)" xlink:href="#T"/></g><use transform="matrix(0.05,0,0,0.05,0,0)" xlink:href="#X" id="d"/><path d="M240 0l2-218c-23 76-54 145-80 218h-23L58-218 59 0H30v-248h44l77 211c21-75 51-140 76-211h43V0h-30" id="Z"/><path d="M114-163C36-179 61-72 57 0H25l-1-190h30c1 12-1 29 2 39 6-27 23-49 58-41v29" id="aa"/><path d="M34 0v-190h32V0H34zM24-211c8-23 27-35 38-54h36v5l-58 49H24" id="ab"/><g id="e"><use transform="matrix(0.05,0,0,0.05,0,0)" xlink:href="#Z"/><use transform="matrix(0.05,0,0,0.05,14.950000000000001,0)" xlink:href="#X"/><use transform="matrix(0.05,0,0,0.05,24.950000000000003,0)" xlink:href="#aa"/><use transform="matrix(0.05,0,0,0.05,30.900000000000002,0)" xlink:href="#ab"/><use transform="matrix(0.05,0,0,0.05,35.900000000000006,0)" xlink:href="#X"/></g><path d="M100-194c63 0 86 42 84 106H49c0 40 14 67 53 68 26 1 43-12 49-29l28 8c-11 28-37 45-77 45C44 4 14-33 15-96c1-61 26-98 85-98zm52 81c6-60-76-77-97-28-3 7-6 17-6 28h103" id="ac"/><g id="f"><use transform="matrix(0.05,0,0,0.05,0,0)" xlink:href="#ac"/><use transform="matrix(0.05,0,0,0.05,10,0)" xlink:href="#T"/></g><g id="g"><use transform="matrix(0.05,0,0,0.05,0,0)" xlink:href="#ac"/><use transform="matrix(0.05,0,0,0.05,10,0)" xlink:href="#W"/></g><path d="M185-189c-5-48-123-54-124 2 14 75 158 14 163 119 3 78-121 87-175 55-17-10-28-26-33-46l33-7c5 56 141 63 141-1 0-78-155-14-162-118-5-82 145-84 179-34 5 7 8 16 11 25" id="ad"/><path d="M59-47c-2 24 18 29 38 22v24C64 9 27 4 27-40v-127H5v-23h24l9-43h21v43h35v23H59v120" id="ae"/><path d="M100-194c62-1 85 37 85 99 1 63-27 99-86 99S16-35 15-95c0-66 28-99 85-99zM99-20c44 1 53-31 53-75 0-43-8-75-51-75s-53 32-53 75 10 74 51 75" id="af"/><g id="h"><use transform="matrix(0.05,0,0,0.05,0,0)" xlink:href="#ad"/><use transform="matrix(0.05,0,0,0.05,12,0)" xlink:href="#X"/><use transform="matrix(0.05,0,0,0.05,22,0)" xlink:href="#T"/><use transform="matrix(0.05,0,0,0.05,32,0)" xlink:href="#ae"/><use transform="matrix(0.05,0,0,0.05,37,0)" xlink:href="#V"/><use transform="matrix(0.05,0,0,0.05,47,0)" xlink:href="#X"/><use transform="matrix(0.05,0,0,0.05,57,0)" xlink:href="#aa"/><use transform="matrix(0.05,0,0,0.05,62.95,0)" xlink:href="#S"/><use transform="matrix(0.05,0,0,0.05,66.9,0)" xlink:href="#af"/></g><path d="M67-125c0 53 21 87 73 88 37 1 54-22 65-47l45 17C233-25 199 4 140 4 58 4 20-42 15-125 8-235 124-281 211-232c18 10 29 29 36 50l-46 12c-8-25-30-41-62-41-52 0-71 34-72 86" id="ag"/><path d="M140-251c80 0 125 45 125 126S219 4 139 4C58 4 15-44 15-125s44-126 125-126zm-1 214c52 0 73-35 73-88 0-50-21-86-72-86-52 0-73 35-73 86s22 88 72 88" id="ah"/><path d="M230 0l2-204L168 0h-37L68-204 70 0H24v-248h70l56 185 57-185h69V0h-46" id="ai"/><path d="M175 0L67-191c6 58 2 128 3 191H24v-248h59L193-55c-6-58-2-129-3-193h46V0h-61" id="aj"/><g id="i"><use transform="matrix(0.05,0,0,0.05,0,0)" xlink:href="#ag"/><use transform="matrix(0.05,0,0,0.05,12.950000000000001,0)" xlink:href="#ah"/><use transform="matrix(0.05,0,0,0.05,26.950000000000003,0)" xlink:href="#ai"/><use transform="matrix(0.05,0,0,0.05,41.900000000000006,0)" xlink:href="#P"/><use transform="matrix(0.05,0,0,0.05,54.85,0)" xlink:href="#aj"/><use transform="matrix(0.05,0,0,0.05,67.80000000000001,0)" xlink:href="#H"/><use transform="matrix(0.05,0,0,0.05,72.80000000000001,0)" xlink:href="#O"/><use transform="matrix(0.05,0,0,0.05,82.40000000000002,0)" xlink:href="#J"/><use transform="matrix(0.05,0,0,0.05,95.35000000000002,0)" xlink:href="#N"/><use transform="matrix(0.05,0,0,0.05,108.30000000000003,0)" xlink:href="#H"/><use transform="matrix(0.05,0,0,0.05,113.30000000000003,0)" xlink:href="#J"/></g><path d="M212-179c-10-28-35-45-73-45-59 0-87 40-87 99 0 60 29 101 89 101 43 0 62-24 78-52l27 14C228-24 195 4 139 4 59 4 22-46 18-125c-6-104 99-153 187-111 19 9 31 26 39 46" id="ak"/><path d="M106-169C34-169 62-67 57 0H25v-261h32l-1 103c12-21 28-36 61-36 89 0 53 116 60 194h-32v-121c2-32-8-49-39-48" id="al"/><path d="M135-143c-3-34-86-38-87 0 15 53 115 12 119 90S17 21 10-45l28-5c4 36 97 45 98 0-10-56-113-15-118-90-4-57 82-63 122-42 12 7 21 19 24 35" id="am"/><path d="M68-38c1 34 0 65-14 84H32c9-13 17-26 17-46H33v-38h35" id="an"/><g id="j"><use transform="matrix(0.05,0,0,0.05,0,0)" xlink:href="#ak"/><use transform="matrix(0.05,0,0,0.05,12.950000000000001,0)" xlink:href="#al"/><use transform="matrix(0.05,0,0,0.05,22.950000000000003,0)" xlink:href="#S"/><use transform="matrix(0.05,0,0,0.05,26.900000000000002,0)" xlink:href="#U"/><use transform="matrix(0.05,0,0,0.05,35.900000000000006,0)" xlink:href="#X"/><use transform="matrix(0.05,0,0,0.05,45.900000000000006,0)" xlink:href="#am"/><use transform="matrix(0.05,0,0,0.05,54.900000000000006,0)" xlink:href="#an"/></g><path d="M141 0L90-78 38 0H4l68-98-65-92h35l48 74 47-74h35l-64 92 68 98h-35" id="ao"/><path d="M85-194c31 0 48 13 60 33l-1-100h32l1 261h-30c-2-10 0-23-3-31C134-8 116 4 85 4 32 4 16-35 15-94c0-66 23-100 70-100zm9 24c-40 0-46 34-46 75 0 40 6 74 45 74 42 0 51-32 51-76 0-42-9-74-50-73" id="ap"/><g id="k"><use transform="matrix(0.05,0,0,0.05,0,0)" xlink:href="#ad"/><use transform="matrix(0.05,0,0,0.05,12,0)" xlink:href="#ac"/><use transform="matrix(0.05,0,0,0.05,22,0)" xlink:href="#ao"/><use transform="matrix(0.05,0,0,0.05,31,0)" xlink:href="#V"/><use transform="matrix(0.05,0,0,0.05,41,0)" xlink:href="#X"/><use transform="matrix(0.05,0,0,0.05,51,0)" xlink:href="#W"/><use transform="matrix(0.05,0,0,0.05,54.95,0)" xlink:href="#S"/><use transform="matrix(0.05,0,0,0.05,58.900000000000006,0)" xlink:href="#ap"/><use transform="matrix(0.05,0,0,0.05,68.9,0)" xlink:href="#X"/><use transform="matrix(0.05,0,0,0.05,78.9,0)" xlink:href="#ap"/></g><path d="M182-130c37 4 62 22 62 59C244 23 116-4 24 0v-248c84 5 203-23 205 63 0 31-19 50-47 55zM76-148c40-3 101 13 101-30 0-44-60-28-101-31v61zm0 110c48-3 116 14 116-37 0-48-69-32-116-35v72" id="aq"/><g id="l"><use transform="matrix(0.05,0,0,0.05,0,0)" xlink:href="#J"/><use transform="matrix(0.05,0,0,0.05,12.950000000000001,0)" xlink:href="#ai"/><use transform="matrix(0.05,0,0,0.05,27.900000000000002,0)" xlink:href="#aq"/><use transform="matrix(0.05,0,0,0.05,40.85,0)" xlink:href="#H"/><use transform="matrix(0.05,0,0,0.05,45.85,0)" xlink:href="#K"/><use transform="matrix(0.05,0,0,0.05,57.85,0)" xlink:href="#aj"/><use transform="matrix(0.05,0,0,0.05,70.8,0)" xlink:href="#O"/><use transform="matrix(0.05,0,0,0.05,80.4,0)" xlink:href="#J"/><use transform="matrix(0.05,0,0,0.05,93.35000000000001,0)" xlink:href="#Q"/></g><path d="M30-248c87 1 191-15 191 75 0 78-77 80-158 76V0H30v-248zm33 125c57 0 124 11 124-50 0-59-68-47-124-48v98" id="ar"/><g id="m"><use transform="matrix(0.05,0,0,0.05,0,0)" xlink:href="#ar"/><use transform="matrix(0.05,0,0,0.05,12,0)" xlink:href="#ac"/><use transform="matrix(0.05,0,0,0.05,22,0)" xlink:href="#aa"/><use transform="matrix(0.05,0,0,0.05,27.950000000000003,0)" xlink:href="#am"/><use transform="matrix(0.05,0,0,0.05,36.95,0)" xlink:href="#af"/><use transform="matrix(0.05,0,0,0.05,46.95,0)" xlink:href="#T"/><use transform="matrix(0.05,0,0,0.05,56.95,0)" xlink:href="#X"/><use transform="matrix(0.05,0,0,0.05,66.95,0)" xlink:href="#am"/></g><g id="n"><use transform="matrix(0.05,0,0,0.05,0,0)" xlink:href="#X"/><use transform="matrix(0.05,0,0,0.05,10,0)" xlink:href="#W"/><use transform="matrix(0.05,0,0,0.05,13.949999999999998,0)" xlink:href="#aa"/><use transform="matrix(0.05,0,0,0.05,19.9,0)" xlink:href="#ac"/><use transform="matrix(0.05,0,0,0.05,29.899999999999995,0)" xlink:href="#ap"/><use transform="matrix(0.05,0,0,0.05,39.9,0)" xlink:href="#ac"/><use transform="matrix(0.05,0,0,0.05,49.9,0)" xlink:href="#ap"/><use transform="matrix(0.05,0,0,0.05,59.900000000000006,0)" xlink:href="#af"/><use transform="matrix(0.05,0,0,0.05,69.9,0)" xlink:href="#aa"/><use transform="matrix(0.05,0,0,0.05,74.85000000000001,0)" xlink:href="#an"/></g><path d="M33-154v-36h34v36H33zM33 0v-36h34V0H33" id="as"/><g id="o"><use transform="matrix(0.05,0,0,0.05,0,0)" xlink:href="#am"/><use transform="matrix(0.05,0,0,0.05,9,0)" xlink:href="#af"/><use transform="matrix(0.05,0,0,0.05,19,0)" xlink:href="#U"/><use transform="matrix(0.05,0,0,0.05,28,0)" xlink:href="#S"/><use transform="matrix(0.05,0,0,0.05,31.950000000000003,0)" xlink:href="#ac"/><use transform="matrix(0.05,0,0,0.05,41.95,0)" xlink:href="#ap"/><use transform="matrix(0.05,0,0,0.05,51.95,0)" xlink:href="#X"/><use transform="matrix(0.05,0,0,0.05,61.95,0)" xlink:href="#ap"/><use transform="matrix(0.05,0,0,0.05,71.95,0)" xlink:href="#as"/></g><path d="M210-169c-67 3-38 105-44 169h-31v-121c0-29-5-50-35-48C34-165 62-65 56 0H25l-1-190h30c1 10-1 24 2 32 10-44 99-50 107 0 11-21 27-35 58-36 85-2 47 119 55 194h-31v-121c0-29-5-49-35-48" id="at"/><path d="M101-234c-31-9-42 10-38 44h38v23H63V0H32v-167H5v-23h27c-7-52 17-82 69-68v24" id="au"/><g id="p"><use transform="matrix(0.05,0,0,0.05,0,0)" xlink:href="#at"/><use transform="matrix(0.05,0,0,0.05,14.950000000000001,0)" xlink:href="#X"/><use transform="matrix(0.05,0,0,0.05,24.950000000000003,0)" xlink:href="#am"/><use transform="matrix(0.05,0,0,0.05,33.95,0)" xlink:href="#S"/><use transform="matrix(0.05,0,0,0.05,37.900000000000006,0)" xlink:href="#au"/><use transform="matrix(0.05,0,0,0.05,42.900000000000006,0)" xlink:href="#S"/><use transform="matrix(0.05,0,0,0.05,46.85000000000001,0)" xlink:href="#U"/><use transform="matrix(0.05,0,0,0.05,55.85,0)" xlink:href="#X"/><use transform="matrix(0.05,0,0,0.05,65.85000000000001,0)" xlink:href="#U"/><use transform="matrix(0.05,0,0,0.05,74.85000000000001,0)" xlink:href="#S"/><use transform="matrix(0.05,0,0,0.05,78.80000000000001,0)" xlink:href="#Y"/><use transform="matrix(0.05,0,0,0.05,88.80000000000001,0)" xlink:href="#T"/><use transform="matrix(0.05,0,0,0.05,98.80000000000001,0)" xlink:href="#an"/></g><path d="M109-170H84l-4-78h32zm-65 0H19l-4-78h33" id="av"/><path d="M24-231v-30h32v30H24zM-9 49c24 4 33-6 33-30v-209h32V24c2 40-23 58-65 49V49" id="aw"/><g id="q"><use transform="matrix(0.05,0,0,0.05,0,0)" xlink:href="#av"/><use transform="matrix(0.05,0,0,0.05,6.3500000000000005,0)" xlink:href="#ap"/><use transform="matrix(0.05,0,0,0.05,16.35,0)" xlink:href="#ac"/><use transform="matrix(0.05,0,0,0.05,26.35,0)" xlink:href="#aw"/><use transform="matrix(0.05,0,0,0.05,30.3,0)" xlink:href="#X"/><use transform="matrix(0.05,0,0,0.05,40.3,0)" xlink:href="#aa"/></g><g id="r"><use transform="matrix(0.05,0,0,0.05,0,0)" xlink:href="#W"/><use transform="matrix(0.05,0,0,0.05,3.95,0)" xlink:href="#X"/></g><path d="M115-194c53 0 69 39 70 98 0 66-23 100-70 100C84 3 66-7 56-30L54 0H23l1-261h32v101c10-23 28-34 59-34zm-8 174c40 0 45-34 45-75 0-40-5-75-45-74-42 0-51 32-51 76 0 43 10 73 51 73" id="ax"/><g id="s"><use transform="matrix(0.05,0,0,0.05,0,0)" xlink:href="#ac"/><use transform="matrix(0.05,0,0,0.05,10,0)" xlink:href="#at"/><use transform="matrix(0.05,0,0,0.05,24.950000000000003,0)" xlink:href="#ax"/><use transform="matrix(0.05,0,0,0.05,34.95,0)" xlink:href="#X"/><use transform="matrix(0.05,0,0,0.05,44.95,0)" xlink:href="#aa"/><use transform="matrix(0.05,0,0,0.05,50.900000000000006,0)" xlink:href="#aa"/><use transform="matrix(0.05,0,0,0.05,56.85,0)" xlink:href="#X"/><use transform="matrix(0.05,0,0,0.05,66.85000000000001,0)" xlink:href="#ap"/><use transform="matrix(0.05,0,0,0.05,76.85000000000001,0)" xlink:href="#X"/><use transform="matrix(0.05,0,0,0.05,86.85000000000001,0)" xlink:href="#av"/></g><g id="t"><use transform="matrix(0.04953513183965859,0,0,0.04953513183965859,0,0)" xlink:href="#G"/><use transform="matrix(0.04953513183965859,0,0,0.04953513183965859,11.88843164151806,0)" xlink:href="#H"/><use transform="matrix(0.04953513183965859,0,0,0.04953513183965859,16.84194482548392,0)" xlink:href="#I"/><use transform="matrix(0.04953513183965859,0,0,0.04953513183965859,29.671543971955494,0)" xlink:href="#J"/></g><g id="u"><use transform="matrix(0.04953513183965859,0,0,0.04953513183965859,0,0)" xlink:href="#M"/><use transform="matrix(0.04953513183965859,0,0,0.04953513183965859,11.88843164151806,0)" xlink:href="#K"/><use transform="matrix(0.04953513183965859,0,0,0.04953513183965859,23.77686328303612,0)" xlink:href="#N"/><use transform="matrix(0.04953513183965859,0,0,0.04953513183965859,36.606462429507694,0)" xlink:href="#L"/><use transform="matrix(0.04953513183965859,0,0,0.04953513183965859,48.494894071025755,0)" xlink:href="#ah"/><use transform="matrix(0.04953513183965859,0,0,0.04953513183965859,62.364730986130155,0)" xlink:href="#aj"/><use transform="matrix(0.04953513183965859,0,0,0.04953513183965859,75.19433013260173,0)" xlink:href="#J"/><use transform="matrix(0.04953513183965859,0,0,0.04953513183965859,88.02392927907331,0)" xlink:href="#Q"/></g><g id="v"><use transform="matrix(0.04953513183965859,0,0,0.04953513183965859,0,0)" xlink:href="#ad"/><use transform="matrix(0.04953513183965859,0,0,0.04953513183965859,11.88843164151806,0)" xlink:href="#ac"/><use transform="matrix(0.04953513183965859,0,0,0.04953513183965859,21.795458009449778,0)" xlink:href="#aa"/></g><path d="M197 0v-115H63V0H30v-248h33v105h134v-105h34V0h-34" id="ay"/><g id="w"><use transform="matrix(0.04953513183965859,0,0,0.04953513183965859,0,0)" xlink:href="#ay"/><use transform="matrix(0.04953513183965859,0,0,0.04953513183965859,12.829599146471574,0)" xlink:href="#af"/><use transform="matrix(0.04953513183965859,0,0,0.04953513183965859,22.736625514403293,0)" xlink:href="#at"/><use transform="matrix(0.04953513183965859,0,0,0.04953513183965859,37.54762993446121,0)" xlink:href="#ax"/><use transform="matrix(0.04953513183965859,0,0,0.04953513183965859,47.454656302392934,0)" xlink:href="#aa"/><use transform="matrix(0.04953513183965859,0,0,0.04953513183965859,53.34933699131231,0)" xlink:href="#ac"/><use transform="matrix(0.04953513183965859,0,0,0.04953513183965859,63.25636335924402,0)" xlink:href="#as"/></g><path d="M30 0v-248h33v221h125V0H30" id="az"/><g id="x"><use transform="matrix(0.04953513183965859,0,0,0.04953513183965859,0,0)" xlink:href="#az"/><use transform="matrix(0.04953513183965859,0,0,0.04953513183965859,9.907026367931717,0)" xlink:href="#S"/><use transform="matrix(0.04953513183965859,0,0,0.04953513183965859,13.820301783264746,0)" xlink:href="#ax"/><use transform="matrix(0.04953513183965859,0,0,0.04953513183965859,23.727328151196463,0)" xlink:href="#ac"/><use transform="matrix(0.04953513183965859,0,0,0.04953513183965859,33.63435451912818,0)" xlink:href="#aa"/><use transform="matrix(0.04953513183965859,0,0,0.04953513183965859,39.52903520804755,0)" xlink:href="#ae"/><use transform="matrix(0.04953513183965859,0,0,0.04953513183965859,44.48254839201341,0)" xlink:href="#X"/><use transform="matrix(0.04953513183965859,0,0,0.04953513183965859,54.389574759945134,0)" xlink:href="#ap"/></g><g id="y"><use transform="matrix(0.05,0,0,0.05,0,0)" xlink:href="#K"/><use transform="matrix(0.05,0,0,0.05,12,0)" xlink:href="#O"/><use transform="matrix(0.05,0,0,0.05,21.6,0)" xlink:href="#J"/><use transform="matrix(0.05,0,0,0.05,34.550000000000004,0)" xlink:href="#M"/><use transform="matrix(0.05,0,0,0.05,45.2,0)" xlink:href="#J"/></g><g id="z"><use transform="matrix(0.05,0,0,0.05,0,0)" xlink:href="#ar"/><use transform="matrix(0.05,0,0,0.05,12,0)" xlink:href="#aa"/><use transform="matrix(0.05,0,0,0.05,17.95,0)" xlink:href="#af"/><use transform="matrix(0.05,0,0,0.05,27.950000000000003,0)" xlink:href="#at"/><use transform="matrix(0.05,0,0,0.05,42.9,0)" xlink:href="#ac"/><use transform="matrix(0.05,0,0,0.05,52.900000000000006,0)" xlink:href="#am"/><use transform="matrix(0.05,0,0,0.05,61.900000000000006,0)" xlink:href="#am"/><use transform="matrix(0.05,0,0,0.05,70.9,0)" xlink:href="#X"/></g><use transform="matrix(0.05,0,0,0.05,0,0)" xlink:href="#X" id="A"/><g id="B"><use transform="matrix(0.05,0,0,0.05,0,0)" xlink:href="#Z"/><use transform="matrix(0.05,0,0,0.05,14.950000000000001,0)" xlink:href="#X"/><use transform="matrix(0.05,0,0,0.05,24.950000000000003,0)" xlink:href="#aa"/><use transform="matrix(0.05,0,0,0.05,30.900000000000002,0)" xlink:href="#ab"/><use transform="matrix(0.05,0,0,0.05,35.900000000000006,0)" xlink:href="#X"/><use transform="matrix(0.05,0,0,0.05,45.900000000000006,0)" xlink:href="#an"/></g><g id="C"><use transform="matrix(0.05,0,0,0.05,0,0)" xlink:href="#aw"/><use transform="matrix(0.05,0,0,0.05,3.95,0)" xlink:href="#V"/><use transform="matrix(0.05,0,0,0.05,13.949999999999998,0)" xlink:href="#aa"/><use transform="matrix(0.05,0,0,0.05,19.9,0)" xlink:href="#X"/><use transform="matrix(0.05,0,0,0.05,29.899999999999995,0)" xlink:href="#at"/><use transform="matrix(0.05,0,0,0.05,44.85,0)" xlink:href="#ac"/><use transform="matrix(0.05,0,0,0.05,54.85,0)" xlink:href="#T"/><use transform="matrix(0.05,0,0,0.05,64.85,0)" xlink:href="#ae"/><use transform="matrix(0.05,0,0,0.05,69.85,0)" xlink:href="#af"/></g><g id="D"><use transform="matrix(0.05,0,0,0.05,0,0)" xlink:href="#ap"/><use transform="matrix(0.05,0,0,0.05,10,0)" xlink:href="#ac"/></g><g id="E"><use transform="matrix(0.05,0,0,0.05,0,0)" xlink:href="#W"/><use transform="matrix(0.05,0,0,0.05,3.95,0)" xlink:href="#X"/></g><path d="M160-131c35 5 61 23 61 61C221 17 115-2 30 0v-248c76 3 177-17 177 60 0 33-19 50-47 57zm-97-11c50-1 110 9 110-42 0-47-63-36-110-37v79zm0 115c55-2 124 14 124-45 0-56-70-42-124-44v89" id="aA"/><g id="F"><use transform="matrix(0.05,0,0,0.05,0,0)" xlink:href="#aA"/><use transform="matrix(0.05,0,0,0.05,12,0)" xlink:href="#X"/><use transform="matrix(0.05,0,0,0.05,22,0)" xlink:href="#T"/><use transform="matrix(0.05,0,0,0.05,32,0)" xlink:href="#ap"/><use transform="matrix(0.05,0,0,0.05,42,0)" xlink:href="#ac"/><use transform="matrix(0.05,0,0,0.05,52,0)" xlink:href="#aa"/><use transform="matrix(0.05,0,0,0.05,57.95,0)" xlink:href="#X"/></g></defs></g></svg>